<svg xmlns="http://www.w3.org/2000/svg" width="1600" height="900" viewBox="0 0 1600 900">
<defs>
  <linearGradient id="sky" x1="0" y1="0" x2="0" y2="1">
    <stop offset="0" stop-color="#1b1b2e"/>
    <stop offset="1" stop-color="#07070d"/>
  </linearGradient>
  <linearGradient id="mist" x1="0" y1="0" x2="1" y2="0">
    <stop offset="0" stop-color="rgba(255,255,255,0.14)"/>
    <stop offset="1" stop-color="rgba(255,255,255,0.02)"/>
  </linearGradient>
  <filter id="grain">
    <feTurbulence type="fractalNoise" baseFrequency="0.9" numOctaves="2" stitchTiles="stitch"/>
    <feColorMatrix type="matrix" values="1 0 0 0 0  0 1 0 0 0  0 0 1 0 0  0 0 0 .08 0"/>
  </filter>
</defs>
<rect width="1600" height="900" fill="url(#sky)"/>
<g opacity="0.95">
  <path d="M0,720 C240,640 360,780 560,710 C760,640 980,780 1200,710 C1360,660 1480,700 1600,660 L1600,900 L0,900 Z" fill="#0d2018"/>
  <path d="M0,760 C260,700 360,820 560,760 C760,700 980,820 1220,760 C1400,715 1510,760 1600,720 L1600,900 L0,900 Z" fill="#10261c" opacity="0.95"/>
</g>
<g opacity="0.95">
  <g fill="#0c1510">
    <rect x="120" y="170" width="44" height="603" rx="18"/><rect x="260" y="155" width="39" height="666" rx="18"/><rect x="420" y="153" width="48" height="645" rx="18"/><rect x="640" y="165" width="44" height="559" rx="18"/><rect x="820" y="188" width="41" height="582" rx="18"/><rect x="1020" y="210" width="45" height="553" rx="18"/><rect x="1180" y="215" width="34" height="611" rx="18"/><rect x="1380" y="186" width="49" height="627" rx="18"/>
  </g>
  <g fill="#102015" opacity="0.85">
    <circle cx="124" cy="213" r="167"/><circle cx="295" cy="220" r="156"/><circle cx="459" cy="234" r="147"/><circle cx="667" cy="170" r="179"/><circle cx="835" cy="168" r="124"/><circle cx="1024" cy="225" r="143"/><circle cx="1182" cy="145" r="179"/><circle cx="1394" cy="232" r="125"/>
  </g>
</g>
<rect y="520" width="1600" height="260" fill="url(#mist)" opacity="0.55"/>
<rect y="590" width="1600" height="220" fill="url(#mist)" opacity="0.35"/>
<rect width="1600" height="900" filter="url(#grain)" opacity="0.75"/>
</svg>