<svg xmlns="http://www.w3.org/2000/svg" width="1600" height="900" viewBox="0 0 1600 900">
<defs>
  <linearGradient id="g" x1="0" y1="0" x2="0" y2="1">
    <stop offset="0" stop-color="#2a0b1f"/>
    <stop offset="1" stop-color="#07070d"/>
  </linearGradient>
  <filter id="grain">
    <feTurbulence type="fractalNoise" baseFrequency="0.8" numOctaves="2" stitchTiles="stitch"/>
    <feColorMatrix type="matrix" values="1 0 0 0 0  0 1 0 0 0  0 0 1 0 0  0 0 0 .08 0"/>
  </filter>
</defs>
<rect width="1600" height="900" fill="url(#g)"/>
<circle cx="1345" cy="9" r="17" fill="#2f7f60" opacity="0.051"/><circle cx="593" cy="652" r="68" fill="#ff2f77" opacity="0.142"/><circle cx="1596" cy="79" r="79" fill="#ff2f77" opacity="0.148"/><circle cx="1003" cy="337" r="88" fill="#ff6aa3" opacity="0.047"/><circle cx="624" cy="270" r="63" fill="#ff2f77" opacity="0.175"/><circle cx="1189" cy="887" r="73" fill="#ff2f77" opacity="0.131"/><circle cx="-6" cy="509" r="90" fill="#ff4d8d" opacity="0.146"/><circle cx="1226" cy="549" r="56" fill="#ff6aa3" opacity="0.056"/><circle cx="257" cy="-8" r="27" fill="#2f7f60" opacity="0.06"/><circle cx="149" cy="885" r="51" fill="#ff6aa3" opacity="0.108"/><circle cx="1093" cy="443" r="55" fill="#ff6aa3" opacity="0.076"/><circle cx="1587" cy="812" r="8" fill="#ff4d8d" opacity="0.17"/><circle cx="669" cy="741" r="117" fill="#ff2f77" opacity="0.173"/><circle cx="1191" cy="833" r="64" fill="#2f7f60" opacity="0.152"/><circle cx="250" cy="170" r="49" fill="#2f7f60" opacity="0.094"/><circle cx="362" cy="645" r="47" fill="#2f7f60" opacity="0.133"/><circle cx="992" cy="992" r="25" fill="#ff2f77" opacity="0.042"/><circle cx="1126" cy="337" r="38" fill="#ff2f77" opacity="0.107"/><circle cx="-89" cy="104" r="84" fill="#2f7f60" opacity="0.145"/><circle cx="1654" cy="450" r="81" fill="#2f7f60" opacity="0.104"/><circle cx="836" cy="325" r="17" fill="#ff6aa3" opacity="0.168"/><circle cx="1043" cy="668" r="87" fill="#2f7f60" opacity="0.071"/><circle cx="547" cy="776" r="25" fill="#ff6aa3" opacity="0.094"/><circle cx="-67" cy="863" r="81" fill="#ff2f77" opacity="0.169"/><circle cx="381" cy="-72" r="48" fill="#2f7f60" opacity="0.107"/><circle cx="328" cy="-92" r="58" fill="#ff2f77" opacity="0.068"/><circle cx="1189" cy="863" r="103" fill="#ff2f77" opacity="0.114"/><circle cx="-97" cy="588" r="18" fill="#2f7f60" opacity="0.078"/><circle cx="505" cy="538" r="14" fill="#ff4d8d" opacity="0.052"/><circle cx="-34" cy="721" r="94" fill="#ff2f77" opacity="0.121"/><circle cx="1047" cy="14" r="62" fill="#ff4d8d" opacity="0.071"/><circle cx="650" cy="443" r="23" fill="#ff6aa3" opacity="0.07"/><circle cx="920" cy="466" r="33" fill="#ff2f77" opacity="0.135"/><circle cx="329" cy="153" r="52" fill="#ff6aa3" opacity="0.086"/><circle cx="485" cy="383" r="16" fill="#2f7f60" opacity="0.168"/><circle cx="139" cy="77" r="65" fill="#2f7f60" opacity="0.139"/><circle cx="-90" cy="298" r="69" fill="#ff6aa3" opacity="0.098"/><circle cx="388" cy="687" r="71" fill="#ff6aa3" opacity="0.126"/><circle cx="914" cy="634" r="107" fill="#2f7f60" opacity="0.137"/><circle cx="1351" cy="18" r="25" fill="#ff4d8d" opacity="0.099"/><circle cx="1059" cy="500" r="48" fill="#ff4d8d" opacity="0.128"/><circle cx="1060" cy="-21" r="52" fill="#ff2f77" opacity="0.058"/><circle cx="128" cy="681" r="103" fill="#ff6aa3" opacity="0.086"/><circle cx="1433" cy="400" r="71" fill="#ff2f77" opacity="0.114"/><circle cx="57" cy="973" r="12" fill="#ff6aa3" opacity="0.086"/><circle cx="574" cy="267" r="87" fill="#ff6aa3" opacity="0.147"/><circle cx="396" cy="355" r="112" fill="#ff4d8d" opacity="0.102"/><circle cx="382" cy="130" r="62" fill="#2f7f60" opacity="0.078"/><circle cx="1699" cy="311" r="78" fill="#ff4d8d" opacity="0.105"/><circle cx="1243" cy="985" r="71" fill="#ff2f77" opacity="0.16"/><circle cx="563" cy="471" r="88" fill="#2f7f60" opacity="0.079"/><circle cx="1667" cy="599" r="106" fill="#2f7f60" opacity="0.057"/><circle cx="430" cy="429" r="90" fill="#ff2f77" opacity="0.121"/><circle cx="1233" cy="960" r="113" fill="#ff4d8d" opacity="0.135"/><circle cx="-82" cy="432" r="61" fill="#ff2f77" opacity="0.07"/><circle cx="1329" cy="2" r="73" fill="#ff2f77" opacity="0.084"/><circle cx="-79" cy="802" r="101" fill="#ff4d8d" opacity="0.079"/><circle cx="1592" cy="610" r="79" fill="#ff4d8d" opacity="0.073"/><circle cx="689" cy="574" r="17" fill="#ff6aa3" opacity="0.077"/><circle cx="1032" cy="-47" r="98" fill="#ff4d8d" opacity="0.063"/><circle cx="457" cy="224" r="41" fill="#2f7f60" opacity="0.068"/><circle cx="493" cy="-96" r="41" fill="#ff6aa3" opacity="0.117"/><circle cx="813" cy="901" r="47" fill="#ff6aa3" opacity="0.06"/><circle cx="795" cy="238" r="54" fill="#ff4d8d" opacity="0.064"/><circle cx="1209" cy="707" r="15" fill="#2f7f60" opacity="0.114"/><circle cx="300" cy="164" r="25" fill="#ff2f77" opacity="0.09"/><circle cx="1331" cy="-35" r="33" fill="#ff6aa3" opacity="0.09"/><circle cx="1254" cy="421" r="115" fill="#ff6aa3" opacity="0.144"/><circle cx="602" cy="418" r="43" fill="#ff4d8d" opacity="0.147"/><circle cx="1578" cy="662" r="107" fill="#ff2f77" opacity="0.094"/><circle cx="811" cy="954" r="113" fill="#ff6aa3" opacity="0.154"/><circle cx="1488" cy="298" r="76" fill="#ff6aa3" opacity="0.085"/><circle cx="1306" cy="55" r="117" fill="#ff2f77" opacity="0.077"/><circle cx="557" cy="74" r="104" fill="#ff4d8d" opacity="0.099"/><circle cx="477" cy="805" r="102" fill="#ff6aa3" opacity="0.042"/><circle cx="1582" cy="860" r="90" fill="#ff6aa3" opacity="0.062"/><circle cx="1310" cy="412" r="61" fill="#ff2f77" opacity="0.121"/><circle cx="978" cy="561" r="57" fill="#ff2f77" opacity="0.119"/><circle cx="979" cy="94" r="101" fill="#ff2f77" opacity="0.124"/><circle cx="640" cy="61" r="103" fill="#ff6aa3" opacity="0.17"/><circle cx="1578" cy="846" r="119" fill="#ff4d8d" opacity="0.104"/><circle cx="1132" cy="975" r="54" fill="#ff2f77" opacity="0.066"/><circle cx="1519" cy="516" r="109" fill="#ff2f77" opacity="0.115"/><circle cx="1214" cy="812" r="46" fill="#2f7f60" opacity="0.068"/><circle cx="1265" cy="690" r="54" fill="#ff6aa3" opacity="0.12"/><circle cx="1140" cy="860" r="22" fill="#ff6aa3" opacity="0.152"/><circle cx="1336" cy="940" r="78" fill="#2f7f60" opacity="0.081"/><circle cx="126" cy="821" r="103" fill="#ff2f77" opacity="0.139"/><circle cx="997" cy="554" r="104" fill="#ff6aa3" opacity="0.074"/><circle cx="408" cy="289" r="98" fill="#ff4d8d" opacity="0.041"/><circle cx="1551" cy="308" r="120" fill="#ff2f77" opacity="0.141"/><circle cx="1554" cy="124" r="68" fill="#ff2f77" opacity="0.144"/><circle cx="103" cy="979" r="40" fill="#ff6aa3" opacity="0.11"/><circle cx="852" cy="171" r="75" fill="#ff4d8d" opacity="0.148"/><circle cx="2" cy="-52" r="43" fill="#ff4d8d" opacity="0.15"/><circle cx="1099" cy="492" r="23" fill="#ff2f77" opacity="0.051"/><circle cx="630" cy="-14" r="73" fill="#ff4d8d" opacity="0.074"/><circle cx="1689" cy="352" r="44" fill="#2f7f60" opacity="0.112"/><circle cx="48" cy="880" r="119" fill="#ff6aa3" opacity="0.13"/><circle cx="1053" cy="291" r="119" fill="#ff4d8d" opacity="0.158"/><circle cx="1096" cy="185" r="108" fill="#ff6aa3" opacity="0.091"/><circle cx="1112" cy="742" r="33" fill="#ff6aa3" opacity="0.056"/><circle cx="443" cy="307" r="26" fill="#ff4d8d" opacity="0.1"/><circle cx="1503" cy="750" r="82" fill="#ff6aa3" opacity="0.113"/><circle cx="451" cy="165" r="114" fill="#ff2f77" opacity="0.07"/><circle cx="617" cy="369" r="21" fill="#ff6aa3" opacity="0.126"/><circle cx="1366" cy="931" r="40" fill="#2f7f60" opacity="0.088"/><circle cx="266" cy="864" r="11" fill="#ff4d8d" opacity="0.175"/><circle cx="795" cy="324" r="8" fill="#ff2f77" opacity="0.145"/><circle cx="651" cy="188" r="116" fill="#2f7f60" opacity="0.088"/><circle cx="415" cy="207" r="82" fill="#ff6aa3" opacity="0.088"/><circle cx="90" cy="888" r="58" fill="#2f7f60" opacity="0.105"/><circle cx="939" cy="689" r="34" fill="#2f7f60" opacity="0.11"/><circle cx="218" cy="877" r="47" fill="#ff2f77" opacity="0.097"/><circle cx="680" cy="748" r="31" fill="#ff4d8d" opacity="0.053"/><circle cx="930" cy="941" r="81" fill="#ff2f77" opacity="0.154"/><circle cx="163" cy="-12" r="21" fill="#ff2f77" opacity="0.155"/><circle cx="-63" cy="783" r="35" fill="#2f7f60" opacity="0.142"/><circle cx="1469" cy="633" r="104" fill="#ff6aa3" opacity="0.125"/><circle cx="489" cy="353" r="79" fill="#ff2f77" opacity="0.106"/><circle cx="1546" cy="829" r="85" fill="#ff2f77" opacity="0.115"/><circle cx="1592" cy="865" r="18" fill="#ff6aa3" opacity="0.051"/><circle cx="1216" cy="379" r="53" fill="#ff2f77" opacity="0.109"/><circle cx="1591" cy="250" r="105" fill="#ff2f77" opacity="0.149"/><circle cx="270" cy="565" r="45" fill="#ff2f77" opacity="0.171"/><circle cx="678" cy="774" r="84" fill="#2f7f60" opacity="0.177"/><circle cx="1076" cy="234" r="11" fill="#ff4d8d" opacity="0.138"/><circle cx="1311" cy="911" r="47" fill="#2f7f60" opacity="0.115"/><circle cx="1098" cy="684" r="24" fill="#ff2f77" opacity="0.169"/><circle cx="1071" cy="782" r="21" fill="#ff4d8d" opacity="0.163"/><circle cx="691" cy="341" r="85" fill="#ff4d8d" opacity="0.042"/><circle cx="740" cy="-17" r="22" fill="#ff6aa3" opacity="0.124"/><circle cx="12" cy="-13" r="32" fill="#2f7f60" opacity="0.109"/><circle cx="1505" cy="535" r="14" fill="#ff6aa3" opacity="0.114"/><circle cx="1069" cy="294" r="83" fill="#ff2f77" opacity="0.046"/><circle cx="890" cy="570" r="59" fill="#ff2f77" opacity="0.048"/><circle cx="693" cy="662" r="17" fill="#2f7f60" opacity="0.088"/><circle cx="273" cy="394" r="29" fill="#ff2f77" opacity="0.069"/><circle cx="809" cy="533" r="92" fill="#ff6aa3" opacity="0.105"/><circle cx="1098" cy="938" r="95" fill="#ff4d8d" opacity="0.153"/><circle cx="1022" cy="642" r="43" fill="#ff4d8d" opacity="0.091"/><circle cx="573" cy="28" r="83" fill="#ff6aa3" opacity="0.086"/><circle cx="449" cy="-8" r="94" fill="#ff4d8d" opacity="0.177"/><circle cx="-28" cy="397" r="106" fill="#2f7f60" opacity="0.045"/><circle cx="497" cy="921" r="120" fill="#ff6aa3" opacity="0.097"/><circle cx="868" cy="608" r="105" fill="#ff2f77" opacity="0.108"/><circle cx="30" cy="599" r="113" fill="#ff6aa3" opacity="0.069"/><circle cx="1095" cy="812" r="81" fill="#ff6aa3" opacity="0.061"/><circle cx="1229" cy="884" r="54" fill="#ff2f77" opacity="0.073"/><circle cx="912" cy="611" r="13" fill="#ff2f77" opacity="0.15"/><circle cx="1621" cy="215" r="21" fill="#2f7f60" opacity="0.114"/><circle cx="-97" cy="-90" r="116" fill="#ff4d8d" opacity="0.065"/><circle cx="1580" cy="929" r="78" fill="#ff6aa3" opacity="0.065"/><circle cx="936" cy="997" r="66" fill="#ff2f77" opacity="0.113"/><circle cx="1218" cy="565" r="39" fill="#ff4d8d" opacity="0.092"/><circle cx="846" cy="171" r="53" fill="#ff6aa3" opacity="0.112"/><circle cx="170" cy="653" r="66" fill="#ff2f77" opacity="0.133"/><circle cx="1363" cy="285" r="75" fill="#ff2f77" opacity="0.178"/><circle cx="200" cy="394" r="73" fill="#2f7f60" opacity="0.074"/><circle cx="755" cy="600" r="10" fill="#ff4d8d" opacity="0.042"/><circle cx="371" cy="291" r="13" fill="#2f7f60" opacity="0.168"/><circle cx="1457" cy="430" r="97" fill="#ff2f77" opacity="0.106"/><circle cx="1662" cy="372" r="59" fill="#ff4d8d" opacity="0.137"/><circle cx="374" cy="56" r="118" fill="#2f7f60" opacity="0.093"/><circle cx="1632" cy="703" r="24" fill="#ff6aa3" opacity="0.172"/><circle cx="1657" cy="573" r="23" fill="#ff4d8d" opacity="0.041"/><circle cx="446" cy="723" r="112" fill="#2f7f60" opacity="0.075"/><circle cx="1005" cy="573" r="34" fill="#ff6aa3" opacity="0.134"/><circle cx="672" cy="492" r="37" fill="#ff6aa3" opacity="0.061"/><circle cx="793" cy="169" r="14" fill="#ff6aa3" opacity="0.174"/><circle cx="-15" cy="876" r="115" fill="#ff2f77" opacity="0.165"/><circle cx="1508" cy="698" r="44" fill="#ff6aa3" opacity="0.17"/><circle cx="654" cy="890" r="55" fill="#ff6aa3" opacity="0.147"/><circle cx="1678" cy="754" r="94" fill="#ff6aa3" opacity="0.152"/><circle cx="584" cy="-42" r="26" fill="#ff6aa3" opacity="0.084"/><circle cx="19" cy="449" r="59" fill="#ff6aa3" opacity="0.081"/><circle cx="384" cy="262" r="114" fill="#2f7f60" opacity="0.123"/><circle cx="1586" cy="895" r="73" fill="#ff4d8d" opacity="0.095"/><circle cx="1680" cy="842" r="93" fill="#ff6aa3" opacity="0.169"/><circle cx="1314" cy="233" r="44" fill="#ff2f77" opacity="0.171"/><circle cx="364" cy="301" r="34" fill="#ff2f77" opacity="0.12"/><circle cx="200" cy="36" r="36" fill="#ff6aa3" opacity="0.151"/><circle cx="731" cy="782" r="8" fill="#ff2f77" opacity="0.086"/><circle cx="1458" cy="724" r="117" fill="#ff2f77" opacity="0.121"/><circle cx="1147" cy="184" r="90" fill="#2f7f60" opacity="0.081"/><circle cx="1567" cy="503" r="41" fill="#ff4d8d" opacity="0.08"/><circle cx="217" cy="21" r="101" fill="#ff2f77" opacity="0.1"/><circle cx="20" cy="446" r="29" fill="#ff4d8d" opacity="0.143"/><circle cx="9" cy="716" r="45" fill="#2f7f60" opacity="0.119"/><circle cx="933" cy="353" r="113" fill="#2f7f60" opacity="0.176"/><circle cx="1618" cy="24" r="24" fill="#2f7f60" opacity="0.147"/><circle cx="594" cy="-34" r="18" fill="#ff4d8d" opacity="0.062"/><circle cx="195" cy="-63" r="108" fill="#ff2f77" opacity="0.104"/><circle cx="1031" cy="255" r="9" fill="#ff6aa3" opacity="0.069"/><circle cx="1332" cy="331" r="108" fill="#ff4d8d" opacity="0.133"/><circle cx="319" cy="751" r="66" fill="#ff6aa3" opacity="0.057"/><circle cx="472" cy="906" r="119" fill="#2f7f60" opacity="0.09"/><circle cx="861" cy="573" r="74" fill="#ff4d8d" opacity="0.16"/><circle cx="961" cy="349" r="44" fill="#2f7f60" opacity="0.118"/><circle cx="894" cy="274" r="10" fill="#ff4d8d" opacity="0.086"/><circle cx="536" cy="-25" r="28" fill="#2f7f60" opacity="0.177"/><circle cx="1597" cy="21" r="67" fill="#ff6aa3" opacity="0.127"/><circle cx="744" cy="483" r="36" fill="#ff4d8d" opacity="0.127"/><circle cx="1572" cy="697" r="63" fill="#ff2f77" opacity="0.179"/><circle cx="1377" cy="361" r="13" fill="#ff6aa3" opacity="0.065"/><circle cx="1366" cy="628" r="40" fill="#ff2f77" opacity="0.085"/><circle cx="783" cy="705" r="44" fill="#ff6aa3" opacity="0.113"/><circle cx="179" cy="761" r="95" fill="#ff6aa3" opacity="0.153"/><circle cx="295" cy="815" r="110" fill="#ff4d8d" opacity="0.126"/><circle cx="1273" cy="298" r="35" fill="#2f7f60" opacity="0.065"/><circle cx="552" cy="710" r="115" fill="#2f7f60" opacity="0.07"/><circle cx="1629" cy="222" r="36" fill="#2f7f60" opacity="0.111"/><circle cx="594" cy="157" r="36" fill="#2f7f60" opacity="0.171"/><circle cx="1358" cy="523" r="71" fill="#2f7f60" opacity="0.072"/><circle cx="291" cy="773" r="20" fill="#2f7f60" opacity="0.165"/><circle cx="831" cy="504" r="41" fill="#2f7f60" opacity="0.129"/><circle cx="1671" cy="523" r="48" fill="#ff2f77" opacity="0.137"/><circle cx="327" cy="616" r="92" fill="#2f7f60" opacity="0.043"/><circle cx="962" cy="999" r="12" fill="#ff2f77" opacity="0.09"/><circle cx="980" cy="892" r="89" fill="#ff2f77" opacity="0.118"/><circle cx="495" cy="358" r="12" fill="#ff2f77" opacity="0.054"/><circle cx="1481" cy="499" r="37" fill="#ff4d8d" opacity="0.049"/><circle cx="57" cy="457" r="53" fill="#2f7f60" opacity="0.153"/><circle cx="162" cy="512" r="66" fill="#ff6aa3" opacity="0.136"/><circle cx="548" cy="176" r="88" fill="#ff6aa3" opacity="0.091"/><circle cx="237" cy="113" r="16" fill="#ff6aa3" opacity="0.143"/><circle cx="997" cy="367" r="75" fill="#2f7f60" opacity="0.052"/><circle cx="392" cy="897" r="67" fill="#ff4d8d" opacity="0.081"/><circle cx="268" cy="-61" r="40" fill="#ff2f77" opacity="0.057"/><circle cx="17" cy="-77" r="33" fill="#ff6aa3" opacity="0.159"/><circle cx="1033" cy="-28" r="110" fill="#ff6aa3" opacity="0.156"/><circle cx="116" cy="455" r="44" fill="#ff2f77" opacity="0.126"/><circle cx="505" cy="107" r="92" fill="#ff2f77" opacity="0.102"/><circle cx="295" cy="643" r="12" fill="#ff4d8d" opacity="0.099"/><circle cx="341" cy="661" r="59" fill="#ff2f77" opacity="0.117"/><circle cx="1179" cy="733" r="25" fill="#ff6aa3" opacity="0.092"/><circle cx="1295" cy="514" r="116" fill="#2f7f60" opacity="0.149"/><circle cx="939" cy="24" r="31" fill="#ff6aa3" opacity="0.162"/><circle cx="770" cy="59" r="92" fill="#2f7f60" opacity="0.098"/><circle cx="865" cy="310" r="61" fill="#2f7f60" opacity="0.121"/>
<rect width="1600" height="900" filter="url(#grain)" opacity="0.7"/>
</svg>