<svg xmlns="http://www.w3.org/2000/svg" width="1600" height="900" viewBox="0 0 1600 900">
<defs>
  <linearGradient id="g" x1="0" y1="0" x2="0" y2="1">
    <stop offset="0" stop-color="#1a0f14"/>
    <stop offset="1" stop-color="#07070d"/>
  </linearGradient>
  <filter id="grain">
    <feTurbulence type="fractalNoise" baseFrequency="0.8" numOctaves="2" stitchTiles="stitch"/>
    <feColorMatrix type="matrix" values="1 0 0 0 0  0 1 0 0 0  0 0 1 0 0  0 0 0 .08 0"/>
  </filter>
</defs>
<rect width="1600" height="900" fill="url(#g)"/>
<circle cx="1187" cy="-50" r="35" fill="#ff4d8d" opacity="0.084"/><circle cx="112" cy="627" r="89" fill="#ffd166" opacity="0.073"/><circle cx="585" cy="963" r="49" fill="#7c5cff" opacity="0.114"/><circle cx="96" cy="-97" r="55" fill="#ff4d8d" opacity="0.044"/><circle cx="1005" cy="-86" r="14" fill="#ffd166" opacity="0.145"/><circle cx="532" cy="185" r="66" fill="#ffd166" opacity="0.077"/><circle cx="1666" cy="569" r="119" fill="#7c5cff" opacity="0.1"/><circle cx="1521" cy="611" r="37" fill="#ff4d8d" opacity="0.13"/><circle cx="1564" cy="877" r="88" fill="#ff4d8d" opacity="0.157"/><circle cx="1389" cy="180" r="58" fill="#ff4d8d" opacity="0.047"/><circle cx="442" cy="255" r="32" fill="#7c5cff" opacity="0.052"/><circle cx="1030" cy="881" r="85" fill="#ffd166" opacity="0.178"/><circle cx="1091" cy="343" r="85" fill="#7c5cff" opacity="0.135"/><circle cx="601" cy="768" r="89" fill="#ff4d8d" opacity="0.092"/><circle cx="506" cy="9" r="35" fill="#ff4d8d" opacity="0.062"/><circle cx="1340" cy="248" r="36" fill="#ffd166" opacity="0.095"/><circle cx="-92" cy="107" r="38" fill="#7c5cff" opacity="0.065"/><circle cx="1241" cy="886" r="41" fill="#ff4d8d" opacity="0.062"/><circle cx="981" cy="401" r="28" fill="#ff4d8d" opacity="0.065"/><circle cx="-3" cy="513" r="37" fill="#ff4d8d" opacity="0.178"/><circle cx="487" cy="652" r="19" fill="#ffd166" opacity="0.106"/><circle cx="938" cy="683" r="81" fill="#ffd166" opacity="0.154"/><circle cx="183" cy="257" r="14" fill="#ffd166" opacity="0.131"/><circle cx="1205" cy="491" r="102" fill="#ffd166" opacity="0.09"/><circle cx="433" cy="651" r="85" fill="#ff4d8d" opacity="0.146"/><circle cx="683" cy="907" r="112" fill="#ff4d8d" opacity="0.099"/><circle cx="157" cy="360" r="102" fill="#ffd166" opacity="0.134"/><circle cx="1092" cy="14" r="67" fill="#7c5cff" opacity="0.125"/><circle cx="764" cy="681" r="75" fill="#7c5cff" opacity="0.111"/><circle cx="433" cy="-64" r="113" fill="#ff4d8d" opacity="0.094"/><circle cx="144" cy="905" r="85" fill="#7c5cff" opacity="0.099"/><circle cx="729" cy="647" r="49" fill="#7c5cff" opacity="0.114"/><circle cx="-9" cy="625" r="97" fill="#ffd166" opacity="0.091"/><circle cx="1499" cy="-59" r="29" fill="#ff4d8d" opacity="0.156"/><circle cx="726" cy="669" r="115" fill="#ff4d8d" opacity="0.143"/><circle cx="381" cy="297" r="58" fill="#7c5cff" opacity="0.142"/><circle cx="67" cy="786" r="59" fill="#ffd166" opacity="0.177"/><circle cx="1098" cy="313" r="98" fill="#ff4d8d" opacity="0.165"/><circle cx="1695" cy="978" r="96" fill="#ff4d8d" opacity="0.071"/><circle cx="32" cy="842" r="50" fill="#ffd166" opacity="0.158"/><circle cx="757" cy="684" r="17" fill="#ff4d8d" opacity="0.058"/><circle cx="874" cy="982" r="102" fill="#7c5cff" opacity="0.13"/><circle cx="1381" cy="961" r="56" fill="#ff4d8d" opacity="0.136"/><circle cx="88" cy="-8" r="112" fill="#ff4d8d" opacity="0.099"/><circle cx="492" cy="875" r="88" fill="#ffd166" opacity="0.081"/><circle cx="54" cy="571" r="53" fill="#ffd166" opacity="0.071"/><circle cx="1053" cy="-33" r="20" fill="#ffd166" opacity="0.078"/><circle cx="1620" cy="368" r="93" fill="#ff4d8d" opacity="0.123"/><circle cx="673" cy="265" r="30" fill="#7c5cff" opacity="0.071"/><circle cx="654" cy="975" r="94" fill="#ffd166" opacity="0.117"/><circle cx="1078" cy="449" r="115" fill="#7c5cff" opacity="0.049"/><circle cx="1335" cy="611" r="31" fill="#7c5cff" opacity="0.123"/><circle cx="13" cy="733" r="28" fill="#ff4d8d" opacity="0.177"/><circle cx="370" cy="691" r="39" fill="#7c5cff" opacity="0.044"/><circle cx="1342" cy="391" r="75" fill="#ff4d8d" opacity="0.113"/><circle cx="939" cy="-53" r="68" fill="#ff4d8d" opacity="0.072"/><circle cx="1023" cy="-44" r="44" fill="#ffd166" opacity="0.143"/><circle cx="401" cy="-93" r="28" fill="#7c5cff" opacity="0.112"/><circle cx="566" cy="704" r="28" fill="#7c5cff" opacity="0.17"/><circle cx="1231" cy="449" r="17" fill="#ff4d8d" opacity="0.048"/><circle cx="264" cy="841" r="58" fill="#ff4d8d" opacity="0.153"/><circle cx="925" cy="698" r="68" fill="#ffd166" opacity="0.136"/><circle cx="474" cy="544" r="65" fill="#ffd166" opacity="0.057"/><circle cx="1151" cy="789" r="94" fill="#ff4d8d" opacity="0.13"/><circle cx="1201" cy="218" r="112" fill="#ff4d8d" opacity="0.102"/><circle cx="394" cy="690" r="34" fill="#ff4d8d" opacity="0.168"/><circle cx="846" cy="204" r="36" fill="#ff4d8d" opacity="0.043"/><circle cx="1258" cy="56" r="39" fill="#ff4d8d" opacity="0.103"/><circle cx="658" cy="726" r="71" fill="#7c5cff" opacity="0.08"/><circle cx="1370" cy="363" r="63" fill="#ffd166" opacity="0.043"/><circle cx="881" cy="470" r="106" fill="#ff4d8d" opacity="0.052"/><circle cx="1562" cy="58" r="38" fill="#ff4d8d" opacity="0.071"/><circle cx="1326" cy="244" r="83" fill="#ffd166" opacity="0.137"/><circle cx="1280" cy="789" r="60" fill="#7c5cff" opacity="0.119"/><circle cx="1457" cy="537" r="59" fill="#ffd166" opacity="0.131"/><circle cx="416" cy="724" r="51" fill="#7c5cff" opacity="0.088"/><circle cx="1210" cy="108" r="16" fill="#ff4d8d" opacity="0.059"/><circle cx="602" cy="243" r="112" fill="#ff4d8d" opacity="0.051"/><circle cx="1600" cy="910" r="84" fill="#ff4d8d" opacity="0.049"/><circle cx="727" cy="332" r="98" fill="#7c5cff" opacity="0.159"/><circle cx="1341" cy="430" r="57" fill="#ff4d8d" opacity="0.159"/><circle cx="391" cy="670" r="15" fill="#ffd166" opacity="0.174"/><circle cx="1637" cy="12" r="13" fill="#ff4d8d" opacity="0.145"/><circle cx="765" cy="654" r="76" fill="#ffd166" opacity="0.096"/><circle cx="1402" cy="520" r="38" fill="#7c5cff" opacity="0.117"/><circle cx="882" cy="260" r="46" fill="#ff4d8d" opacity="0.096"/><circle cx="1082" cy="289" r="119" fill="#ffd166" opacity="0.139"/><circle cx="1169" cy="260" r="8" fill="#ffd166" opacity="0.095"/><circle cx="421" cy="296" r="70" fill="#7c5cff" opacity="0.084"/><circle cx="1138" cy="802" r="93" fill="#ff4d8d" opacity="0.061"/><circle cx="507" cy="868" r="71" fill="#ffd166" opacity="0.048"/><circle cx="548" cy="705" r="20" fill="#7c5cff" opacity="0.151"/><circle cx="136" cy="448" r="120" fill="#7c5cff" opacity="0.118"/><circle cx="1580" cy="728" r="46" fill="#ff4d8d" opacity="0.109"/><circle cx="648" cy="331" r="74" fill="#ff4d8d" opacity="0.102"/><circle cx="657" cy="995" r="88" fill="#ffd166" opacity="0.067"/><circle cx="1546" cy="434" r="66" fill="#ff4d8d" opacity="0.073"/><circle cx="1161" cy="208" r="120" fill="#ffd166" opacity="0.179"/><circle cx="1692" cy="874" r="100" fill="#ffd166" opacity="0.108"/><circle cx="1086" cy="957" r="73" fill="#7c5cff" opacity="0.171"/><circle cx="26" cy="269" r="42" fill="#ffd166" opacity="0.142"/><circle cx="1154" cy="739" r="31" fill="#ffd166" opacity="0.121"/><circle cx="1565" cy="129" r="25" fill="#ff4d8d" opacity="0.166"/><circle cx="280" cy="469" r="58" fill="#ff4d8d" opacity="0.166"/><circle cx="816" cy="-60" r="22" fill="#ff4d8d" opacity="0.104"/><circle cx="1043" cy="-86" r="54" fill="#ff4d8d" opacity="0.088"/><circle cx="1419" cy="486" r="94" fill="#7c5cff" opacity="0.127"/><circle cx="294" cy="958" r="12" fill="#ff4d8d" opacity="0.138"/><circle cx="864" cy="636" r="97" fill="#7c5cff" opacity="0.144"/><circle cx="1240" cy="332" r="94" fill="#ffd166" opacity="0.153"/><circle cx="343" cy="587" r="85" fill="#7c5cff" opacity="0.091"/><circle cx="1016" cy="923" r="47" fill="#7c5cff" opacity="0.178"/><circle cx="995" cy="316" r="51" fill="#ff4d8d" opacity="0.132"/><circle cx="694" cy="23" r="26" fill="#7c5cff" opacity="0.133"/><circle cx="701" cy="689" r="106" fill="#ff4d8d" opacity="0.079"/><circle cx="1021" cy="151" r="111" fill="#7c5cff" opacity="0.076"/><circle cx="197" cy="393" r="79" fill="#ffd166" opacity="0.106"/><circle cx="1462" cy="340" r="60" fill="#ff4d8d" opacity="0.072"/><circle cx="1504" cy="963" r="105" fill="#ffd166" opacity="0.12"/><circle cx="1069" cy="139" r="70" fill="#ffd166" opacity="0.152"/><circle cx="1318" cy="62" r="77" fill="#ff4d8d" opacity="0.129"/><circle cx="63" cy="788" r="117" fill="#ff4d8d" opacity="0.054"/><circle cx="1578" cy="277" r="14" fill="#7c5cff" opacity="0.056"/><circle cx="1430" cy="187" r="105" fill="#ff4d8d" opacity="0.15"/><circle cx="837" cy="653" r="103" fill="#ffd166" opacity="0.106"/><circle cx="98" cy="412" r="41" fill="#7c5cff" opacity="0.049"/><circle cx="1634" cy="-12" r="72" fill="#7c5cff" opacity="0.115"/><circle cx="167" cy="99" r="87" fill="#ff4d8d" opacity="0.088"/><circle cx="97" cy="327" r="42" fill="#7c5cff" opacity="0.173"/><circle cx="1400" cy="264" r="100" fill="#ff4d8d" opacity="0.146"/><circle cx="1261" cy="188" r="44" fill="#ff4d8d" opacity="0.058"/><circle cx="733" cy="506" r="28" fill="#ffd166" opacity="0.108"/><circle cx="682" cy="714" r="68" fill="#ffd166" opacity="0.062"/><circle cx="240" cy="246" r="70" fill="#7c5cff" opacity="0.179"/><circle cx="984" cy="635" r="89" fill="#ffd166" opacity="0.174"/><circle cx="328" cy="-96" r="25" fill="#7c5cff" opacity="0.158"/><circle cx="73" cy="765" r="89" fill="#ffd166" opacity="0.13"/><circle cx="236" cy="11" r="92" fill="#ff4d8d" opacity="0.096"/><circle cx="540" cy="980" r="97" fill="#ffd166" opacity="0.081"/><circle cx="795" cy="523" r="41" fill="#ffd166" opacity="0.118"/><circle cx="1460" cy="986" r="115" fill="#ffd166" opacity="0.118"/><circle cx="497" cy="484" r="46" fill="#ff4d8d" opacity="0.066"/><circle cx="870" cy="-18" r="115" fill="#7c5cff" opacity="0.07"/><circle cx="892" cy="720" r="71" fill="#7c5cff" opacity="0.155"/><circle cx="248" cy="488" r="30" fill="#ff4d8d" opacity="0.043"/><circle cx="1460" cy="883" r="81" fill="#ffd166" opacity="0.105"/><circle cx="358" cy="-69" r="45" fill="#ff4d8d" opacity="0.167"/><circle cx="325" cy="403" r="70" fill="#ffd166" opacity="0.151"/><circle cx="1040" cy="927" r="48" fill="#ff4d8d" opacity="0.122"/><circle cx="93" cy="965" r="91" fill="#ff4d8d" opacity="0.045"/><circle cx="209" cy="949" r="17" fill="#7c5cff" opacity="0.107"/><circle cx="1023" cy="-55" r="57" fill="#ffd166" opacity="0.141"/><circle cx="597" cy="773" r="98" fill="#ff4d8d" opacity="0.067"/><circle cx="129" cy="993" r="88" fill="#ffd166" opacity="0.062"/><circle cx="112" cy="286" r="20" fill="#ff4d8d" opacity="0.169"/><circle cx="1283" cy="874" r="62" fill="#ff4d8d" opacity="0.07"/><circle cx="876" cy="944" r="108" fill="#ff4d8d" opacity="0.166"/><circle cx="622" cy="-29" r="17" fill="#7c5cff" opacity="0.106"/><circle cx="682" cy="95" r="40" fill="#ffd166" opacity="0.167"/><circle cx="466" cy="879" r="78" fill="#ffd166" opacity="0.153"/><circle cx="233" cy="221" r="106" fill="#ff4d8d" opacity="0.116"/><circle cx="1418" cy="-72" r="50" fill="#ffd166" opacity="0.099"/><circle cx="280" cy="206" r="95" fill="#7c5cff" opacity="0.058"/><circle cx="-19" cy="330" r="106" fill="#ff4d8d" opacity="0.083"/><circle cx="560" cy="972" r="118" fill="#ffd166" opacity="0.073"/><circle cx="468" cy="138" r="47" fill="#7c5cff" opacity="0.06"/><circle cx="118" cy="768" r="32" fill="#ff4d8d" opacity="0.05"/><circle cx="445" cy="458" r="15" fill="#7c5cff" opacity="0.139"/><circle cx="773" cy="806" r="111" fill="#ffd166" opacity="0.103"/><circle cx="-54" cy="128" r="31" fill="#ffd166" opacity="0.054"/><circle cx="1669" cy="925" r="75" fill="#ffd166" opacity="0.085"/><circle cx="588" cy="390" r="65" fill="#ff4d8d" opacity="0.152"/><circle cx="222" cy="557" r="58" fill="#7c5cff" opacity="0.142"/><circle cx="672" cy="30" r="72" fill="#ffd166" opacity="0.179"/><circle cx="-60" cy="664" r="89" fill="#ffd166" opacity="0.112"/><circle cx="893" cy="626" r="109" fill="#7c5cff" opacity="0.133"/><circle cx="482" cy="64" r="54" fill="#ff4d8d" opacity="0.176"/><circle cx="652" cy="109" r="31" fill="#ff4d8d" opacity="0.08"/><circle cx="1269" cy="234" r="9" fill="#ff4d8d" opacity="0.168"/><circle cx="1658" cy="674" r="37" fill="#ff4d8d" opacity="0.156"/><circle cx="503" cy="754" r="88" fill="#ff4d8d" opacity="0.086"/><circle cx="1651" cy="22" r="25" fill="#7c5cff" opacity="0.082"/><circle cx="1657" cy="958" r="35" fill="#ff4d8d" opacity="0.098"/><circle cx="1191" cy="458" r="86" fill="#ffd166" opacity="0.047"/><circle cx="720" cy="307" r="109" fill="#ffd166" opacity="0.147"/><circle cx="1511" cy="-1" r="43" fill="#ffd166" opacity="0.106"/><circle cx="1445" cy="72" r="28" fill="#7c5cff" opacity="0.078"/><circle cx="-13" cy="113" r="28" fill="#ff4d8d" opacity="0.175"/><circle cx="1178" cy="757" r="79" fill="#ff4d8d" opacity="0.133"/><circle cx="1124" cy="665" r="32" fill="#ff4d8d" opacity="0.082"/><circle cx="272" cy="707" r="28" fill="#ffd166" opacity="0.118"/><circle cx="1650" cy="880" r="102" fill="#7c5cff" opacity="0.088"/><circle cx="1499" cy="720" r="70" fill="#7c5cff" opacity="0.154"/><circle cx="672" cy="256" r="45" fill="#ff4d8d" opacity="0.082"/><circle cx="969" cy="964" r="80" fill="#7c5cff" opacity="0.077"/><circle cx="305" cy="380" r="68" fill="#ffd166" opacity="0.069"/><circle cx="456" cy="605" r="14" fill="#ffd166" opacity="0.17"/><circle cx="955" cy="215" r="48" fill="#7c5cff" opacity="0.062"/><circle cx="1032" cy="143" r="85" fill="#ffd166" opacity="0.127"/><circle cx="631" cy="92" r="98" fill="#7c5cff" opacity="0.088"/>
<rect width="1600" height="900" filter="url(#grain)" opacity="0.7"/>
</svg>