<svg xmlns="http://www.w3.org/2000/svg" width="1600" height="900" viewBox="0 0 1600 900">
<defs>
  <linearGradient id="g" x1="0" y1="0" x2="0" y2="1">
    <stop offset="0" stop-color="#0c1230"/>
    <stop offset="1" stop-color="#07070d"/>
  </linearGradient>
  <filter id="grain">
    <feTurbulence type="fractalNoise" baseFrequency="0.8" numOctaves="2" stitchTiles="stitch"/>
    <feColorMatrix type="matrix" values="1 0 0 0 0  0 1 0 0 0  0 0 1 0 0  0 0 0 .08 0"/>
  </filter>
</defs>
<rect width="1600" height="900" fill="url(#g)"/>
<circle cx="903" cy="214" r="74" fill="#ff4d8d" opacity="0.098"/><circle cx="832" cy="287" r="24" fill="#7c5cff" opacity="0.054"/><circle cx="452" cy="847" r="24" fill="#3a86ff" opacity="0.155"/><circle cx="-1" cy="720" r="108" fill="#3a86ff" opacity="0.114"/><circle cx="1417" cy="966" r="104" fill="#ff4d8d" opacity="0.064"/><circle cx="276" cy="8" r="47" fill="#ff4d8d" opacity="0.139"/><circle cx="1643" cy="984" r="87" fill="#3a86ff" opacity="0.18"/><circle cx="1151" cy="733" r="31" fill="#3a86ff" opacity="0.078"/><circle cx="1537" cy="-56" r="51" fill="#3a86ff" opacity="0.138"/><circle cx="1026" cy="627" r="112" fill="#7c5cff" opacity="0.166"/><circle cx="843" cy="243" r="65" fill="#7c5cff" opacity="0.176"/><circle cx="1553" cy="903" r="107" fill="#7c5cff" opacity="0.152"/><circle cx="787" cy="22" r="83" fill="#7c5cff" opacity="0.071"/><circle cx="1127" cy="743" r="120" fill="#7c5cff" opacity="0.048"/><circle cx="250" cy="939" r="33" fill="#3a86ff" opacity="0.126"/><circle cx="1374" cy="289" r="49" fill="#ff4d8d" opacity="0.091"/><circle cx="866" cy="987" r="67" fill="#7c5cff" opacity="0.093"/><circle cx="1355" cy="507" r="108" fill="#7c5cff" opacity="0.061"/><circle cx="1544" cy="333" r="81" fill="#7c5cff" opacity="0.083"/><circle cx="1188" cy="784" r="31" fill="#ff4d8d" opacity="0.171"/><circle cx="579" cy="168" r="56" fill="#3a86ff" opacity="0.142"/><circle cx="1508" cy="161" r="69" fill="#ff4d8d" opacity="0.042"/><circle cx="685" cy="933" r="20" fill="#ff4d8d" opacity="0.174"/><circle cx="191" cy="686" r="80" fill="#7c5cff" opacity="0.043"/><circle cx="243" cy="753" r="53" fill="#7c5cff" opacity="0.07"/><circle cx="1199" cy="268" r="33" fill="#ff4d8d" opacity="0.099"/><circle cx="383" cy="531" r="106" fill="#ff4d8d" opacity="0.175"/><circle cx="94" cy="33" r="28" fill="#7c5cff" opacity="0.129"/><circle cx="670" cy="631" r="108" fill="#3a86ff" opacity="0.08"/><circle cx="135" cy="989" r="112" fill="#7c5cff" opacity="0.063"/><circle cx="1271" cy="37" r="75" fill="#3a86ff" opacity="0.07"/><circle cx="433" cy="-86" r="106" fill="#7c5cff" opacity="0.087"/><circle cx="186" cy="515" r="104" fill="#ff4d8d" opacity="0.1"/><circle cx="931" cy="173" r="14" fill="#3a86ff" opacity="0.053"/><circle cx="1214" cy="379" r="65" fill="#ff4d8d" opacity="0.07"/><circle cx="587" cy="122" r="23" fill="#3a86ff" opacity="0.067"/><circle cx="1517" cy="-9" r="22" fill="#ff4d8d" opacity="0.053"/><circle cx="1360" cy="70" r="43" fill="#3a86ff" opacity="0.087"/><circle cx="1201" cy="99" r="104" fill="#ff4d8d" opacity="0.072"/><circle cx="1117" cy="405" r="9" fill="#ff4d8d" opacity="0.124"/><circle cx="973" cy="632" r="59" fill="#3a86ff" opacity="0.096"/><circle cx="378" cy="306" r="116" fill="#3a86ff" opacity="0.138"/><circle cx="724" cy="-58" r="100" fill="#3a86ff" opacity="0.087"/><circle cx="-67" cy="565" r="83" fill="#ff4d8d" opacity="0.126"/><circle cx="1444" cy="31" r="50" fill="#7c5cff" opacity="0.115"/><circle cx="1599" cy="991" r="35" fill="#3a86ff" opacity="0.074"/><circle cx="953" cy="362" r="70" fill="#ff4d8d" opacity="0.165"/><circle cx="-82" cy="923" r="36" fill="#7c5cff" opacity="0.07"/><circle cx="724" cy="739" r="96" fill="#3a86ff" opacity="0.086"/><circle cx="723" cy="880" r="72" fill="#3a86ff" opacity="0.145"/><circle cx="1015" cy="631" r="9" fill="#7c5cff" opacity="0.16"/><circle cx="1357" cy="-90" r="10" fill="#ff4d8d" opacity="0.167"/><circle cx="1457" cy="712" r="79" fill="#7c5cff" opacity="0.16"/><circle cx="13" cy="-22" r="100" fill="#7c5cff" opacity="0.083"/><circle cx="1572" cy="997" r="112" fill="#ff4d8d" opacity="0.06"/><circle cx="175" cy="290" r="34" fill="#7c5cff" opacity="0.11"/><circle cx="1229" cy="565" r="74" fill="#ff4d8d" opacity="0.085"/><circle cx="648" cy="774" r="52" fill="#ff4d8d" opacity="0.118"/><circle cx="1435" cy="359" r="105" fill="#7c5cff" opacity="0.175"/><circle cx="276" cy="552" r="114" fill="#7c5cff" opacity="0.078"/><circle cx="1182" cy="774" r="108" fill="#7c5cff" opacity="0.06"/><circle cx="999" cy="225" r="98" fill="#ff4d8d" opacity="0.069"/><circle cx="845" cy="426" r="30" fill="#ff4d8d" opacity="0.046"/><circle cx="745" cy="935" r="55" fill="#ff4d8d" opacity="0.159"/><circle cx="1602" cy="325" r="11" fill="#3a86ff" opacity="0.048"/><circle cx="304" cy="-89" r="63" fill="#7c5cff" opacity="0.116"/><circle cx="386" cy="201" r="79" fill="#ff4d8d" opacity="0.108"/><circle cx="1491" cy="115" r="35" fill="#3a86ff" opacity="0.142"/><circle cx="1114" cy="-72" r="22" fill="#3a86ff" opacity="0.176"/><circle cx="352" cy="-34" r="33" fill="#7c5cff" opacity="0.041"/><circle cx="351" cy="320" r="73" fill="#7c5cff" opacity="0.175"/><circle cx="904" cy="457" r="101" fill="#3a86ff" opacity="0.078"/><circle cx="1080" cy="288" r="59" fill="#7c5cff" opacity="0.113"/><circle cx="1480" cy="565" r="26" fill="#7c5cff" opacity="0.094"/><circle cx="194" cy="832" r="65" fill="#ff4d8d" opacity="0.171"/><circle cx="1020" cy="764" r="23" fill="#ff4d8d" opacity="0.096"/><circle cx="788" cy="523" r="66" fill="#7c5cff" opacity="0.103"/><circle cx="359" cy="676" r="112" fill="#3a86ff" opacity="0.071"/><circle cx="1523" cy="-16" r="17" fill="#3a86ff" opacity="0.179"/><circle cx="914" cy="274" r="111" fill="#3a86ff" opacity="0.094"/><circle cx="66" cy="740" r="110" fill="#7c5cff" opacity="0.07"/><circle cx="1072" cy="133" r="9" fill="#7c5cff" opacity="0.132"/><circle cx="1180" cy="469" r="120" fill="#ff4d8d" opacity="0.119"/><circle cx="702" cy="519" r="21" fill="#7c5cff" opacity="0.143"/><circle cx="1510" cy="190" r="30" fill="#ff4d8d" opacity="0.165"/><circle cx="674" cy="415" r="80" fill="#7c5cff" opacity="0.169"/><circle cx="1532" cy="237" r="44" fill="#3a86ff" opacity="0.046"/><circle cx="187" cy="-8" r="27" fill="#7c5cff" opacity="0.087"/><circle cx="1255" cy="330" r="25" fill="#ff4d8d" opacity="0.118"/><circle cx="347" cy="41" r="45" fill="#3a86ff" opacity="0.139"/><circle cx="792" cy="327" r="94" fill="#3a86ff" opacity="0.073"/><circle cx="1062" cy="660" r="107" fill="#7c5cff" opacity="0.123"/><circle cx="81" cy="343" r="31" fill="#7c5cff" opacity="0.086"/><circle cx="1343" cy="-35" r="40" fill="#7c5cff" opacity="0.117"/><circle cx="1383" cy="40" r="15" fill="#7c5cff" opacity="0.047"/><circle cx="1243" cy="528" r="30" fill="#3a86ff" opacity="0.171"/><circle cx="703" cy="756" r="28" fill="#3a86ff" opacity="0.159"/><circle cx="1610" cy="-8" r="68" fill="#3a86ff" opacity="0.143"/><circle cx="358" cy="248" r="77" fill="#7c5cff" opacity="0.17"/><circle cx="1567" cy="505" r="33" fill="#ff4d8d" opacity="0.161"/><circle cx="506" cy="839" r="89" fill="#3a86ff" opacity="0.049"/><circle cx="468" cy="164" r="52" fill="#3a86ff" opacity="0.156"/><circle cx="981" cy="850" r="51" fill="#ff4d8d" opacity="0.141"/><circle cx="1684" cy="-5" r="88" fill="#3a86ff" opacity="0.082"/><circle cx="63" cy="609" r="49" fill="#7c5cff" opacity="0.135"/><circle cx="1290" cy="655" r="62" fill="#3a86ff" opacity="0.09"/><circle cx="1145" cy="904" r="60" fill="#7c5cff" opacity="0.139"/><circle cx="1371" cy="719" r="12" fill="#ff4d8d" opacity="0.118"/><circle cx="1519" cy="10" r="82" fill="#7c5cff" opacity="0.101"/><circle cx="1368" cy="457" r="67" fill="#7c5cff" opacity="0.044"/><circle cx="1135" cy="-97" r="99" fill="#3a86ff" opacity="0.145"/><circle cx="943" cy="334" r="54" fill="#ff4d8d" opacity="0.104"/><circle cx="-43" cy="75" r="115" fill="#7c5cff" opacity="0.075"/><circle cx="1614" cy="994" r="81" fill="#ff4d8d" opacity="0.127"/><circle cx="1563" cy="805" r="33" fill="#ff4d8d" opacity="0.129"/><circle cx="1450" cy="215" r="61" fill="#3a86ff" opacity="0.054"/><circle cx="1568" cy="620" r="88" fill="#3a86ff" opacity="0.055"/><circle cx="1386" cy="32" r="87" fill="#3a86ff" opacity="0.083"/><circle cx="451" cy="86" r="34" fill="#ff4d8d" opacity="0.088"/><circle cx="1544" cy="420" r="97" fill="#3a86ff" opacity="0.165"/><circle cx="787" cy="440" r="52" fill="#7c5cff" opacity="0.054"/><circle cx="289" cy="42" r="17" fill="#7c5cff" opacity="0.127"/><circle cx="351" cy="-47" r="69" fill="#ff4d8d" opacity="0.101"/><circle cx="1366" cy="166" r="51" fill="#3a86ff" opacity="0.151"/><circle cx="1009" cy="64" r="105" fill="#3a86ff" opacity="0.091"/><circle cx="1576" cy="520" r="23" fill="#ff4d8d" opacity="0.165"/><circle cx="501" cy="953" r="76" fill="#ff4d8d" opacity="0.153"/><circle cx="900" cy="720" r="60" fill="#3a86ff" opacity="0.086"/><circle cx="725" cy="426" r="60" fill="#ff4d8d" opacity="0.085"/><circle cx="950" cy="640" r="102" fill="#7c5cff" opacity="0.057"/><circle cx="852" cy="691" r="96" fill="#ff4d8d" opacity="0.062"/><circle cx="417" cy="116" r="9" fill="#7c5cff" opacity="0.103"/><circle cx="516" cy="792" r="57" fill="#7c5cff" opacity="0.104"/><circle cx="122" cy="443" r="63" fill="#7c5cff" opacity="0.045"/><circle cx="587" cy="147" r="17" fill="#7c5cff" opacity="0.149"/><circle cx="861" cy="405" r="111" fill="#ff4d8d" opacity="0.163"/><circle cx="1472" cy="676" r="56" fill="#7c5cff" opacity="0.045"/><circle cx="851" cy="823" r="39" fill="#3a86ff" opacity="0.14"/><circle cx="644" cy="573" r="103" fill="#ff4d8d" opacity="0.143"/><circle cx="826" cy="447" r="34" fill="#7c5cff" opacity="0.09"/><circle cx="-2" cy="438" r="101" fill="#3a86ff" opacity="0.14"/><circle cx="-96" cy="300" r="28" fill="#3a86ff" opacity="0.074"/><circle cx="56" cy="258" r="88" fill="#3a86ff" opacity="0.121"/><circle cx="412" cy="178" r="81" fill="#3a86ff" opacity="0.061"/><circle cx="1394" cy="-33" r="57" fill="#3a86ff" opacity="0.048"/><circle cx="1133" cy="385" r="107" fill="#3a86ff" opacity="0.044"/><circle cx="191" cy="950" r="21" fill="#7c5cff" opacity="0.107"/><circle cx="698" cy="979" r="90" fill="#3a86ff" opacity="0.053"/><circle cx="739" cy="126" r="75" fill="#7c5cff" opacity="0.138"/><circle cx="1622" cy="3" r="34" fill="#7c5cff" opacity="0.176"/><circle cx="908" cy="216" r="114" fill="#7c5cff" opacity="0.067"/><circle cx="162" cy="482" r="79" fill="#3a86ff" opacity="0.126"/><circle cx="1373" cy="320" r="52" fill="#7c5cff" opacity="0.151"/><circle cx="1395" cy="48" r="55" fill="#3a86ff" opacity="0.125"/><circle cx="1593" cy="455" r="109" fill="#3a86ff" opacity="0.04"/><circle cx="1689" cy="789" r="97" fill="#3a86ff" opacity="0.048"/><circle cx="161" cy="83" r="79" fill="#3a86ff" opacity="0.131"/><circle cx="224" cy="730" r="33" fill="#ff4d8d" opacity="0.148"/><circle cx="1699" cy="235" r="93" fill="#ff4d8d" opacity="0.085"/><circle cx="916" cy="129" r="73" fill="#ff4d8d" opacity="0.137"/><circle cx="1455" cy="275" r="72" fill="#7c5cff" opacity="0.159"/><circle cx="890" cy="949" r="56" fill="#7c5cff" opacity="0.063"/><circle cx="1120" cy="328" r="115" fill="#ff4d8d" opacity="0.153"/><circle cx="1497" cy="306" r="109" fill="#7c5cff" opacity="0.167"/><circle cx="1267" cy="411" r="60" fill="#ff4d8d" opacity="0.065"/><circle cx="195" cy="672" r="17" fill="#7c5cff" opacity="0.047"/><circle cx="1545" cy="634" r="11" fill="#7c5cff" opacity="0.158"/><circle cx="-46" cy="668" r="112" fill="#ff4d8d" opacity="0.126"/><circle cx="1209" cy="735" r="57" fill="#7c5cff" opacity="0.086"/><circle cx="525" cy="994" r="86" fill="#7c5cff" opacity="0.145"/>
<rect width="1600" height="900" filter="url(#grain)" opacity="0.7"/>
</svg>