<svg xmlns="http://www.w3.org/2000/svg" width="1600" height="900" viewBox="0 0 1600 900">
<defs>
  <linearGradient id="g" x1="0" y1="0" x2="0" y2="1">
    <stop offset="0" stop-color="#1a0b17"/>
    <stop offset="1" stop-color="#07070d"/>
  </linearGradient>
  <filter id="grain">
    <feTurbulence type="fractalNoise" baseFrequency="0.8" numOctaves="2" stitchTiles="stitch"/>
    <feColorMatrix type="matrix" values="1 0 0 0 0  0 1 0 0 0  0 0 1 0 0  0 0 0 .08 0"/>
  </filter>
</defs>
<rect width="1600" height="900" fill="url(#g)"/>
<circle cx="452" cy="24" r="16" fill="#ffb703" opacity="0.176"/><circle cx="1095" cy="-98" r="82" fill="#ffb703" opacity="0.042"/><circle cx="447" cy="231" r="49" fill="#ffd166" opacity="0.11"/><circle cx="-57" cy="335" r="58" fill="#ffb703" opacity="0.165"/><circle cx="1428" cy="-68" r="108" fill="#ffd166" opacity="0.117"/><circle cx="979" cy="493" r="81" fill="#ff4d8d" opacity="0.171"/><circle cx="327" cy="889" r="27" fill="#ffd166" opacity="0.043"/><circle cx="736" cy="418" r="23" fill="#ffd166" opacity="0.088"/><circle cx="519" cy="178" r="51" fill="#ffd166" opacity="0.077"/><circle cx="-53" cy="995" r="79" fill="#ffb703" opacity="0.113"/><circle cx="430" cy="41" r="27" fill="#ffb703" opacity="0.161"/><circle cx="1603" cy="736" r="56" fill="#ff4d8d" opacity="0.118"/><circle cx="588" cy="133" r="15" fill="#ffb703" opacity="0.173"/><circle cx="173" cy="685" r="75" fill="#ff4d8d" opacity="0.156"/><circle cx="663" cy="42" r="96" fill="#ff4d8d" opacity="0.104"/><circle cx="149" cy="497" r="104" fill="#ff4d8d" opacity="0.114"/><circle cx="1441" cy="113" r="91" fill="#ff4d8d" opacity="0.08"/><circle cx="1432" cy="528" r="49" fill="#ffd166" opacity="0.051"/><circle cx="362" cy="114" r="112" fill="#ffd166" opacity="0.139"/><circle cx="749" cy="444" r="45" fill="#ffb703" opacity="0.147"/><circle cx="1101" cy="623" r="103" fill="#ff4d8d" opacity="0.086"/><circle cx="660" cy="598" r="39" fill="#ffb703" opacity="0.168"/><circle cx="34" cy="925" r="9" fill="#ffd166" opacity="0.17"/><circle cx="221" cy="117" r="22" fill="#ffd166" opacity="0.065"/><circle cx="171" cy="53" r="88" fill="#ffb703" opacity="0.063"/><circle cx="1082" cy="482" r="113" fill="#ff4d8d" opacity="0.147"/><circle cx="1128" cy="196" r="12" fill="#ffb703" opacity="0.05"/><circle cx="513" cy="677" r="53" fill="#ffd166" opacity="0.14"/><circle cx="804" cy="184" r="110" fill="#ffb703" opacity="0.138"/><circle cx="927" cy="66" r="22" fill="#ffb703" opacity="0.097"/><circle cx="490" cy="683" r="119" fill="#ff4d8d" opacity="0.171"/><circle cx="1228" cy="93" r="32" fill="#ffd166" opacity="0.138"/><circle cx="45" cy="637" r="34" fill="#ff4d8d" opacity="0.04"/><circle cx="623" cy="926" r="118" fill="#ffd166" opacity="0.14"/><circle cx="429" cy="455" r="80" fill="#ffb703" opacity="0.053"/><circle cx="221" cy="960" r="38" fill="#ffd166" opacity="0.159"/><circle cx="585" cy="859" r="99" fill="#ff4d8d" opacity="0.074"/><circle cx="1167" cy="864" r="71" fill="#ffd166" opacity="0.096"/><circle cx="1193" cy="153" r="95" fill="#ff4d8d" opacity="0.163"/><circle cx="181" cy="510" r="55" fill="#ffb703" opacity="0.065"/><circle cx="707" cy="285" r="62" fill="#ffd166" opacity="0.156"/><circle cx="200" cy="689" r="114" fill="#ffb703" opacity="0.179"/><circle cx="897" cy="860" r="43" fill="#ff4d8d" opacity="0.098"/><circle cx="-88" cy="161" r="54" fill="#ffb703" opacity="0.127"/><circle cx="380" cy="624" r="84" fill="#ff4d8d" opacity="0.178"/><circle cx="-71" cy="556" r="29" fill="#ffb703" opacity="0.067"/><circle cx="1237" cy="571" r="119" fill="#ffb703" opacity="0.094"/><circle cx="983" cy="23" r="75" fill="#ff4d8d" opacity="0.071"/><circle cx="1228" cy="296" r="114" fill="#ffb703" opacity="0.104"/><circle cx="392" cy="267" r="54" fill="#ffb703" opacity="0.174"/><circle cx="1257" cy="937" r="73" fill="#ff4d8d" opacity="0.168"/><circle cx="1163" cy="-74" r="37" fill="#ffd166" opacity="0.133"/><circle cx="664" cy="235" r="92" fill="#ffb703" opacity="0.108"/><circle cx="331" cy="374" r="87" fill="#ffd166" opacity="0.049"/><circle cx="1090" cy="15" r="13" fill="#ffd166" opacity="0.138"/><circle cx="1157" cy="741" r="17" fill="#ffb703" opacity="0.107"/><circle cx="1563" cy="890" r="18" fill="#ffb703" opacity="0.157"/><circle cx="-29" cy="869" r="53" fill="#ffb703" opacity="0.066"/><circle cx="794" cy="663" r="106" fill="#ffd166" opacity="0.091"/><circle cx="166" cy="638" r="56" fill="#ff4d8d" opacity="0.071"/><circle cx="97" cy="657" r="113" fill="#ffd166" opacity="0.141"/><circle cx="1097" cy="808" r="19" fill="#ffb703" opacity="0.126"/><circle cx="636" cy="733" r="56" fill="#ff4d8d" opacity="0.088"/><circle cx="898" cy="358" r="59" fill="#ffd166" opacity="0.062"/><circle cx="794" cy="992" r="118" fill="#ff4d8d" opacity="0.158"/><circle cx="267" cy="832" r="37" fill="#ffb703" opacity="0.127"/><circle cx="715" cy="928" r="22" fill="#ffb703" opacity="0.069"/><circle cx="991" cy="-28" r="93" fill="#ffb703" opacity="0.153"/><circle cx="1540" cy="711" r="29" fill="#ff4d8d" opacity="0.12"/><circle cx="1505" cy="-88" r="14" fill="#ff4d8d" opacity="0.162"/><circle cx="1617" cy="978" r="32" fill="#ffb703" opacity="0.068"/><circle cx="1088" cy="303" r="41" fill="#ffb703" opacity="0.118"/><circle cx="1342" cy="69" r="99" fill="#ffd166" opacity="0.054"/><circle cx="66" cy="927" r="91" fill="#ffd166" opacity="0.091"/><circle cx="1676" cy="98" r="47" fill="#ffd166" opacity="0.177"/><circle cx="1583" cy="220" r="105" fill="#ffd166" opacity="0.136"/><circle cx="337" cy="553" r="38" fill="#ff4d8d" opacity="0.122"/><circle cx="1336" cy="528" r="111" fill="#ff4d8d" opacity="0.179"/><circle cx="463" cy="397" r="15" fill="#ffd166" opacity="0.176"/><circle cx="1696" cy="327" r="20" fill="#ffd166" opacity="0.124"/><circle cx="1070" cy="43" r="108" fill="#ffb703" opacity="0.166"/><circle cx="133" cy="712" r="18" fill="#ff4d8d" opacity="0.163"/><circle cx="1118" cy="321" r="55" fill="#ffd166" opacity="0.047"/><circle cx="1225" cy="4" r="106" fill="#ffb703" opacity="0.073"/><circle cx="576" cy="947" r="85" fill="#ffd166" opacity="0.127"/><circle cx="1155" cy="811" r="97" fill="#ffd166" opacity="0.092"/><circle cx="70" cy="290" r="49" fill="#ffd166" opacity="0.123"/><circle cx="1557" cy="419" r="37" fill="#ff4d8d" opacity="0.129"/><circle cx="288" cy="566" r="120" fill="#ffd166" opacity="0.058"/><circle cx="635" cy="632" r="44" fill="#ffb703" opacity="0.177"/><circle cx="1637" cy="924" r="51" fill="#ffd166" opacity="0.089"/><circle cx="431" cy="694" r="31" fill="#ffd166" opacity="0.125"/><circle cx="-47" cy="194" r="37" fill="#ffb703" opacity="0.132"/><circle cx="214" cy="382" r="59" fill="#ffd166" opacity="0.118"/><circle cx="467" cy="-23" r="17" fill="#ff4d8d" opacity="0.082"/><circle cx="1492" cy="-96" r="51" fill="#ffd166" opacity="0.091"/><circle cx="467" cy="851" r="119" fill="#ff4d8d" opacity="0.151"/><circle cx="793" cy="490" r="76" fill="#ff4d8d" opacity="0.056"/><circle cx="1504" cy="314" r="49" fill="#ffd166" opacity="0.062"/><circle cx="1169" cy="677" r="109" fill="#ffd166" opacity="0.078"/><circle cx="1485" cy="721" r="117" fill="#ffb703" opacity="0.108"/><circle cx="998" cy="609" r="26" fill="#ffd166" opacity="0.172"/><circle cx="579" cy="-30" r="111" fill="#ffd166" opacity="0.046"/><circle cx="842" cy="675" r="101" fill="#ffb703" opacity="0.048"/><circle cx="1583" cy="559" r="45" fill="#ffd166" opacity="0.119"/><circle cx="1419" cy="678" r="11" fill="#ffb703" opacity="0.147"/><circle cx="477" cy="638" r="41" fill="#ffd166" opacity="0.052"/><circle cx="591" cy="934" r="104" fill="#ffd166" opacity="0.07"/><circle cx="1271" cy="207" r="96" fill="#ff4d8d" opacity="0.15"/><circle cx="1532" cy="296" r="19" fill="#ffd166" opacity="0.101"/><circle cx="1105" cy="104" r="92" fill="#ff4d8d" opacity="0.086"/><circle cx="1152" cy="601" r="82" fill="#ffd166" opacity="0.14"/><circle cx="1219" cy="404" r="34" fill="#ff4d8d" opacity="0.177"/><circle cx="284" cy="97" r="20" fill="#ff4d8d" opacity="0.123"/><circle cx="1499" cy="-33" r="86" fill="#ff4d8d" opacity="0.131"/><circle cx="1413" cy="964" r="83" fill="#ffd166" opacity="0.138"/><circle cx="92" cy="-88" r="16" fill="#ffb703" opacity="0.073"/><circle cx="366" cy="451" r="25" fill="#ffd166" opacity="0.18"/><circle cx="1100" cy="658" r="77" fill="#ff4d8d" opacity="0.171"/><circle cx="20" cy="315" r="92" fill="#ff4d8d" opacity="0.043"/><circle cx="980" cy="265" r="20" fill="#ffb703" opacity="0.155"/><circle cx="917" cy="-3" r="83" fill="#ffb703" opacity="0.088"/><circle cx="10" cy="804" r="71" fill="#ffd166" opacity="0.104"/><circle cx="11" cy="470" r="19" fill="#ff4d8d" opacity="0.08"/><circle cx="1674" cy="780" r="78" fill="#ff4d8d" opacity="0.145"/><circle cx="1381" cy="745" r="107" fill="#ff4d8d" opacity="0.138"/><circle cx="688" cy="712" r="49" fill="#ffb703" opacity="0.105"/><circle cx="948" cy="576" r="27" fill="#ff4d8d" opacity="0.168"/><circle cx="104" cy="387" r="117" fill="#ffb703" opacity="0.169"/><circle cx="453" cy="338" r="66" fill="#ffd166" opacity="0.09"/><circle cx="634" cy="480" r="50" fill="#ffb703" opacity="0.177"/><circle cx="1226" cy="393" r="12" fill="#ffb703" opacity="0.138"/><circle cx="335" cy="298" r="107" fill="#ff4d8d" opacity="0.1"/><circle cx="1012" cy="861" r="39" fill="#ff4d8d" opacity="0.087"/><circle cx="233" cy="671" r="104" fill="#ffd166" opacity="0.162"/><circle cx="1661" cy="-76" r="36" fill="#ff4d8d" opacity="0.149"/><circle cx="253" cy="838" r="115" fill="#ffb703" opacity="0.146"/><circle cx="903" cy="511" r="65" fill="#ffd166" opacity="0.053"/><circle cx="1286" cy="888" r="117" fill="#ffb703" opacity="0.047"/><circle cx="569" cy="313" r="114" fill="#ffb703" opacity="0.163"/><circle cx="1037" cy="422" r="77" fill="#ffd166" opacity="0.123"/><circle cx="1216" cy="673" r="66" fill="#ffd166" opacity="0.092"/><circle cx="1548" cy="164" r="94" fill="#ffb703" opacity="0.081"/><circle cx="544" cy="188" r="120" fill="#ffd166" opacity="0.047"/><circle cx="943" cy="375" r="110" fill="#ffb703" opacity="0.093"/><circle cx="357" cy="40" r="58" fill="#ff4d8d" opacity="0.083"/><circle cx="896" cy="533" r="35" fill="#ff4d8d" opacity="0.053"/><circle cx="795" cy="999" r="44" fill="#ffd166" opacity="0.164"/><circle cx="1107" cy="-50" r="97" fill="#ff4d8d" opacity="0.171"/><circle cx="1519" cy="937" r="37" fill="#ff4d8d" opacity="0.178"/><circle cx="684" cy="964" r="82" fill="#ff4d8d" opacity="0.098"/><circle cx="875" cy="332" r="115" fill="#ffb703" opacity="0.069"/><circle cx="1006" cy="32" r="113" fill="#ffd166" opacity="0.072"/><circle cx="991" cy="188" r="22" fill="#ffb703" opacity="0.068"/><circle cx="803" cy="-54" r="76" fill="#ffd166" opacity="0.052"/><circle cx="374" cy="466" r="68" fill="#ffb703" opacity="0.112"/><circle cx="1276" cy="458" r="112" fill="#ffb703" opacity="0.071"/><circle cx="852" cy="478" r="92" fill="#ffd166" opacity="0.101"/><circle cx="681" cy="954" r="44" fill="#ffd166" opacity="0.127"/><circle cx="1137" cy="643" r="8" fill="#ffb703" opacity="0.129"/><circle cx="1460" cy="874" r="14" fill="#ffd166" opacity="0.125"/><circle cx="1673" cy="886" r="28" fill="#ffb703" opacity="0.099"/><circle cx="825" cy="-84" r="87" fill="#ffb703" opacity="0.096"/><circle cx="754" cy="164" r="79" fill="#ffd166" opacity="0.082"/><circle cx="303" cy="969" r="112" fill="#ff4d8d" opacity="0.119"/><circle cx="1034" cy="739" r="19" fill="#ff4d8d" opacity="0.177"/><circle cx="550" cy="-85" r="76" fill="#ffb703" opacity="0.113"/><circle cx="1185" cy="13" r="88" fill="#ffb703" opacity="0.145"/><circle cx="1367" cy="431" r="63" fill="#ffd166" opacity="0.18"/><circle cx="-22" cy="434" r="41" fill="#ffb703" opacity="0.136"/><circle cx="135" cy="103" r="108" fill="#ffb703" opacity="0.17"/><circle cx="23" cy="733" r="117" fill="#ffd166" opacity="0.1"/><circle cx="1551" cy="792" r="107" fill="#ffd166" opacity="0.125"/><circle cx="63" cy="767" r="119" fill="#ff4d8d" opacity="0.118"/><circle cx="325" cy="974" r="120" fill="#ffb703" opacity="0.096"/><circle cx="500" cy="290" r="79" fill="#ff4d8d" opacity="0.113"/><circle cx="422" cy="591" r="89" fill="#ffd166" opacity="0.147"/><circle cx="189" cy="40" r="52" fill="#ffb703" opacity="0.176"/><circle cx="1617" cy="821" r="63" fill="#ffb703" opacity="0.176"/><circle cx="657" cy="152" r="73" fill="#ff4d8d" opacity="0.173"/><circle cx="931" cy="357" r="103" fill="#ff4d8d" opacity="0.146"/><circle cx="384" cy="507" r="52" fill="#ffd166" opacity="0.112"/><circle cx="49" cy="70" r="71" fill="#ffb703" opacity="0.084"/><circle cx="868" cy="14" r="102" fill="#ff4d8d" opacity="0.068"/><circle cx="30" cy="435" r="74" fill="#ff4d8d" opacity="0.042"/><circle cx="-64" cy="770" r="87" fill="#ffd166" opacity="0.116"/><circle cx="44" cy="94" r="108" fill="#ffb703" opacity="0.048"/><circle cx="1613" cy="-79" r="107" fill="#ff4d8d" opacity="0.125"/><circle cx="966" cy="17" r="47" fill="#ff4d8d" opacity="0.163"/><circle cx="782" cy="-53" r="98" fill="#ff4d8d" opacity="0.159"/><circle cx="1358" cy="26" r="39" fill="#ffd166" opacity="0.088"/><circle cx="1057" cy="736" r="57" fill="#ffd166" opacity="0.118"/><circle cx="701" cy="959" r="20" fill="#ff4d8d" opacity="0.159"/><circle cx="435" cy="254" r="76" fill="#ffb703" opacity="0.149"/><circle cx="1118" cy="985" r="119" fill="#ff4d8d" opacity="0.09"/><circle cx="767" cy="-4" r="34" fill="#ff4d8d" opacity="0.136"/><circle cx="-24" cy="649" r="75" fill="#ffb703" opacity="0.136"/><circle cx="1544" cy="483" r="24" fill="#ff4d8d" opacity="0.162"/><circle cx="492" cy="591" r="54" fill="#ffb703" opacity="0.048"/><circle cx="1431" cy="15" r="95" fill="#ff4d8d" opacity="0.104"/><circle cx="1284" cy="422" r="9" fill="#ff4d8d" opacity="0.122"/><circle cx="328" cy="763" r="28" fill="#ffb703" opacity="0.124"/><circle cx="35" cy="552" r="28" fill="#ffb703" opacity="0.163"/><circle cx="343" cy="1000" r="13" fill="#ffb703" opacity="0.178"/><circle cx="482" cy="902" r="61" fill="#ffb703" opacity="0.044"/><circle cx="462" cy="-83" r="12" fill="#ff4d8d" opacity="0.101"/><circle cx="490" cy="856" r="52" fill="#ffb703" opacity="0.096"/><circle cx="230" cy="538" r="109" fill="#ffb703" opacity="0.068"/><circle cx="845" cy="672" r="39" fill="#ff4d8d" opacity="0.133"/><circle cx="1043" cy="21" r="22" fill="#ffb703" opacity="0.118"/><circle cx="239" cy="426" r="101" fill="#ff4d8d" opacity="0.152"/><circle cx="1390" cy="43" r="82" fill="#ff4d8d" opacity="0.127"/><circle cx="750" cy="986" r="23" fill="#ffd166" opacity="0.152"/><circle cx="1547" cy="830" r="61" fill="#ffd166" opacity="0.094"/><circle cx="1641" cy="519" r="26" fill="#ff4d8d" opacity="0.087"/><circle cx="338" cy="301" r="82" fill="#ffb703" opacity="0.166"/><circle cx="1072" cy="-24" r="44" fill="#ff4d8d" opacity="0.063"/><circle cx="377" cy="47" r="51" fill="#ffb703" opacity="0.1"/><circle cx="545" cy="388" r="48" fill="#ffb703" opacity="0.165"/><circle cx="1127" cy="748" r="71" fill="#ff4d8d" opacity="0.076"/>
<rect width="1600" height="900" filter="url(#grain)" opacity="0.7"/>
</svg>