<svg xmlns="http://www.w3.org/2000/svg" width="1600" height="900" viewBox="0 0 1600 900">
<defs>
  <linearGradient id="g" x1="0" y1="0" x2="0" y2="1">
    <stop offset="0" stop-color="#23102a"/>
    <stop offset="1" stop-color="#07070d"/>
  </linearGradient>
  <filter id="grain">
    <feTurbulence type="fractalNoise" baseFrequency="0.8" numOctaves="2" stitchTiles="stitch"/>
    <feColorMatrix type="matrix" values="1 0 0 0 0  0 1 0 0 0  0 0 1 0 0  0 0 0 .08 0"/>
  </filter>
</defs>
<rect width="1600" height="900" fill="url(#g)"/>
<circle cx="1264" cy="374" r="110" fill="#ffd166" opacity="0.124"/><circle cx="-65" cy="144" r="57" fill="#ffd166" opacity="0.148"/><circle cx="550" cy="128" r="106" fill="#ff4d8d" opacity="0.13"/><circle cx="0" cy="565" r="13" fill="#ff4d8d" opacity="0.169"/><circle cx="774" cy="37" r="98" fill="#7c5cff" opacity="0.156"/><circle cx="402" cy="633" r="102" fill="#ff4d8d" opacity="0.085"/><circle cx="1479" cy="482" r="57" fill="#ffd166" opacity="0.179"/><circle cx="1631" cy="500" r="65" fill="#7c5cff" opacity="0.162"/><circle cx="-69" cy="451" r="87" fill="#ffd166" opacity="0.127"/><circle cx="1120" cy="993" r="23" fill="#ff4d8d" opacity="0.132"/><circle cx="792" cy="22" r="111" fill="#7c5cff" opacity="0.107"/><circle cx="960" cy="176" r="41" fill="#7c5cff" opacity="0.108"/><circle cx="1189" cy="107" r="48" fill="#7c5cff" opacity="0.074"/><circle cx="452" cy="473" r="26" fill="#7c5cff" opacity="0.084"/><circle cx="113" cy="441" r="66" fill="#ffd166" opacity="0.135"/><circle cx="-57" cy="324" r="44" fill="#7c5cff" opacity="0.137"/><circle cx="411" cy="509" r="73" fill="#ffd166" opacity="0.16"/><circle cx="700" cy="-61" r="72" fill="#ff4d8d" opacity="0.062"/><circle cx="434" cy="180" r="50" fill="#7c5cff" opacity="0.094"/><circle cx="1360" cy="274" r="98" fill="#ff4d8d" opacity="0.101"/><circle cx="1550" cy="728" r="60" fill="#7c5cff" opacity="0.122"/><circle cx="564" cy="407" r="32" fill="#ff4d8d" opacity="0.111"/><circle cx="39" cy="601" r="76" fill="#ffd166" opacity="0.078"/><circle cx="1066" cy="633" r="65" fill="#ffd166" opacity="0.133"/><circle cx="1590" cy="-54" r="79" fill="#ffd166" opacity="0.081"/><circle cx="1109" cy="650" r="40" fill="#7c5cff" opacity="0.061"/><circle cx="1534" cy="-99" r="96" fill="#ff4d8d" opacity="0.143"/><circle cx="-23" cy="-64" r="9" fill="#ffd166" opacity="0.136"/><circle cx="1087" cy="837" r="46" fill="#ffd166" opacity="0.116"/><circle cx="736" cy="421" r="42" fill="#ffd166" opacity="0.049"/><circle cx="719" cy="36" r="12" fill="#ffd166" opacity="0.104"/><circle cx="1390" cy="415" r="17" fill="#ff4d8d" opacity="0.122"/><circle cx="493" cy="214" r="65" fill="#ff4d8d" opacity="0.086"/><circle cx="886" cy="910" r="22" fill="#ff4d8d" opacity="0.162"/><circle cx="623" cy="275" r="57" fill="#ffd166" opacity="0.049"/><circle cx="194" cy="878" r="73" fill="#ffd166" opacity="0.14"/><circle cx="780" cy="694" r="95" fill="#ff4d8d" opacity="0.096"/><circle cx="334" cy="-18" r="38" fill="#ffd166" opacity="0.141"/><circle cx="625" cy="256" r="98" fill="#ff4d8d" opacity="0.087"/><circle cx="496" cy="411" r="41" fill="#ffd166" opacity="0.06"/><circle cx="1125" cy="187" r="49" fill="#7c5cff" opacity="0.157"/><circle cx="1150" cy="410" r="102" fill="#ff4d8d" opacity="0.15"/><circle cx="1022" cy="989" r="75" fill="#ff4d8d" opacity="0.15"/><circle cx="744" cy="201" r="22" fill="#ff4d8d" opacity="0.179"/><circle cx="421" cy="72" r="19" fill="#ff4d8d" opacity="0.149"/><circle cx="770" cy="881" r="62" fill="#ff4d8d" opacity="0.136"/><circle cx="380" cy="319" r="92" fill="#7c5cff" opacity="0.094"/><circle cx="122" cy="536" r="30" fill="#ffd166" opacity="0.046"/><circle cx="1047" cy="507" r="72" fill="#7c5cff" opacity="0.163"/><circle cx="890" cy="644" r="70" fill="#ffd166" opacity="0.072"/><circle cx="1117" cy="449" r="67" fill="#ff4d8d" opacity="0.122"/><circle cx="766" cy="23" r="86" fill="#ff4d8d" opacity="0.145"/><circle cx="452" cy="339" r="78" fill="#7c5cff" opacity="0.048"/><circle cx="189" cy="481" r="111" fill="#7c5cff" opacity="0.064"/><circle cx="613" cy="809" r="11" fill="#7c5cff" opacity="0.117"/><circle cx="1568" cy="847" r="117" fill="#7c5cff" opacity="0.083"/><circle cx="1232" cy="540" r="100" fill="#7c5cff" opacity="0.049"/><circle cx="1315" cy="286" r="32" fill="#ff4d8d" opacity="0.163"/><circle cx="1541" cy="206" r="30" fill="#7c5cff" opacity="0.083"/><circle cx="1603" cy="478" r="96" fill="#ff4d8d" opacity="0.103"/><circle cx="266" cy="912" r="66" fill="#7c5cff" opacity="0.065"/><circle cx="105" cy="518" r="13" fill="#ffd166" opacity="0.144"/><circle cx="1620" cy="286" r="113" fill="#7c5cff" opacity="0.071"/><circle cx="-11" cy="-34" r="42" fill="#ffd166" opacity="0.043"/><circle cx="1295" cy="449" r="20" fill="#ffd166" opacity="0.169"/><circle cx="1678" cy="786" r="55" fill="#7c5cff" opacity="0.156"/><circle cx="1594" cy="810" r="66" fill="#7c5cff" opacity="0.084"/><circle cx="1073" cy="420" r="24" fill="#ff4d8d" opacity="0.173"/><circle cx="1267" cy="232" r="25" fill="#ffd166" opacity="0.054"/><circle cx="843" cy="-75" r="107" fill="#ff4d8d" opacity="0.119"/><circle cx="717" cy="429" r="79" fill="#ff4d8d" opacity="0.132"/><circle cx="-33" cy="823" r="47" fill="#ffd166" opacity="0.14"/><circle cx="1490" cy="626" r="27" fill="#7c5cff" opacity="0.087"/><circle cx="1660" cy="559" r="77" fill="#7c5cff" opacity="0.068"/><circle cx="433" cy="314" r="106" fill="#ffd166" opacity="0.104"/><circle cx="762" cy="33" r="83" fill="#7c5cff" opacity="0.146"/><circle cx="904" cy="674" r="73" fill="#7c5cff" opacity="0.101"/><circle cx="304" cy="249" r="106" fill="#ffd166" opacity="0.078"/><circle cx="833" cy="122" r="18" fill="#7c5cff" opacity="0.095"/><circle cx="-60" cy="852" r="79" fill="#7c5cff" opacity="0.099"/><circle cx="173" cy="793" r="93" fill="#ffd166" opacity="0.083"/><circle cx="1449" cy="804" r="85" fill="#ff4d8d" opacity="0.06"/><circle cx="1568" cy="906" r="53" fill="#ff4d8d" opacity="0.147"/><circle cx="1473" cy="361" r="50" fill="#ff4d8d" opacity="0.122"/><circle cx="1488" cy="382" r="37" fill="#ff4d8d" opacity="0.091"/><circle cx="130" cy="280" r="52" fill="#ff4d8d" opacity="0.127"/><circle cx="236" cy="820" r="114" fill="#ff4d8d" opacity="0.077"/><circle cx="926" cy="425" r="119" fill="#7c5cff" opacity="0.143"/><circle cx="1343" cy="943" r="44" fill="#7c5cff" opacity="0.172"/><circle cx="1197" cy="410" r="33" fill="#ff4d8d" opacity="0.179"/><circle cx="196" cy="937" r="22" fill="#ff4d8d" opacity="0.154"/><circle cx="158" cy="330" r="90" fill="#ffd166" opacity="0.131"/><circle cx="348" cy="890" r="112" fill="#7c5cff" opacity="0.147"/><circle cx="1368" cy="722" r="58" fill="#ff4d8d" opacity="0.135"/><circle cx="1264" cy="920" r="112" fill="#ff4d8d" opacity="0.09"/><circle cx="973" cy="445" r="99" fill="#ff4d8d" opacity="0.12"/><circle cx="1125" cy="384" r="13" fill="#ff4d8d" opacity="0.091"/><circle cx="469" cy="496" r="20" fill="#ff4d8d" opacity="0.162"/><circle cx="8" cy="686" r="32" fill="#ff4d8d" opacity="0.138"/><circle cx="630" cy="324" r="63" fill="#ffd166" opacity="0.095"/><circle cx="963" cy="398" r="115" fill="#7c5cff" opacity="0.065"/><circle cx="881" cy="551" r="78" fill="#ffd166" opacity="0.134"/><circle cx="1405" cy="879" r="102" fill="#ff4d8d" opacity="0.175"/><circle cx="351" cy="538" r="24" fill="#ffd166" opacity="0.043"/><circle cx="849" cy="446" r="102" fill="#7c5cff" opacity="0.133"/><circle cx="1456" cy="843" r="71" fill="#ffd166" opacity="0.071"/><circle cx="666" cy="922" r="36" fill="#7c5cff" opacity="0.126"/><circle cx="496" cy="761" r="23" fill="#7c5cff" opacity="0.076"/><circle cx="1124" cy="194" r="87" fill="#ff4d8d" opacity="0.124"/><circle cx="1131" cy="815" r="32" fill="#ffd166" opacity="0.102"/><circle cx="539" cy="781" r="61" fill="#ffd166" opacity="0.136"/><circle cx="1043" cy="288" r="30" fill="#7c5cff" opacity="0.127"/><circle cx="1455" cy="59" r="50" fill="#7c5cff" opacity="0.109"/><circle cx="1594" cy="165" r="85" fill="#7c5cff" opacity="0.078"/><circle cx="1159" cy="55" r="96" fill="#7c5cff" opacity="0.173"/><circle cx="444" cy="322" r="69" fill="#7c5cff" opacity="0.135"/><circle cx="186" cy="170" r="57" fill="#ff4d8d" opacity="0.123"/><circle cx="-73" cy="417" r="45" fill="#7c5cff" opacity="0.14"/><circle cx="244" cy="856" r="77" fill="#7c5cff" opacity="0.15"/><circle cx="1043" cy="529" r="66" fill="#7c5cff" opacity="0.149"/><circle cx="409" cy="476" r="91" fill="#ff4d8d" opacity="0.068"/><circle cx="423" cy="907" r="26" fill="#7c5cff" opacity="0.094"/><circle cx="1568" cy="490" r="21" fill="#7c5cff" opacity="0.099"/><circle cx="1268" cy="359" r="57" fill="#7c5cff" opacity="0.092"/><circle cx="1096" cy="338" r="99" fill="#ff4d8d" opacity="0.066"/><circle cx="737" cy="443" r="114" fill="#ffd166" opacity="0.06"/><circle cx="318" cy="310" r="57" fill="#ff4d8d" opacity="0.07"/><circle cx="717" cy="-45" r="81" fill="#ff4d8d" opacity="0.093"/><circle cx="563" cy="328" r="40" fill="#ffd166" opacity="0.086"/><circle cx="381" cy="567" r="27" fill="#7c5cff" opacity="0.135"/><circle cx="1606" cy="849" r="74" fill="#7c5cff" opacity="0.128"/><circle cx="391" cy="913" r="87" fill="#ff4d8d" opacity="0.15"/><circle cx="1138" cy="882" r="101" fill="#ff4d8d" opacity="0.052"/><circle cx="1313" cy="998" r="92" fill="#ffd166" opacity="0.089"/><circle cx="1183" cy="-87" r="97" fill="#ff4d8d" opacity="0.041"/><circle cx="969" cy="564" r="98" fill="#7c5cff" opacity="0.051"/><circle cx="-69" cy="304" r="92" fill="#ff4d8d" opacity="0.136"/><circle cx="1307" cy="244" r="28" fill="#ff4d8d" opacity="0.045"/><circle cx="1589" cy="430" r="42" fill="#ff4d8d" opacity="0.178"/><circle cx="1313" cy="842" r="43" fill="#ff4d8d" opacity="0.116"/><circle cx="658" cy="728" r="105" fill="#ffd166" opacity="0.146"/><circle cx="1503" cy="599" r="27" fill="#ffd166" opacity="0.144"/><circle cx="1147" cy="735" r="43" fill="#ffd166" opacity="0.083"/><circle cx="1548" cy="872" r="19" fill="#ff4d8d" opacity="0.075"/><circle cx="1649" cy="351" r="81" fill="#7c5cff" opacity="0.047"/><circle cx="1398" cy="860" r="43" fill="#7c5cff" opacity="0.111"/><circle cx="1489" cy="254" r="106" fill="#7c5cff" opacity="0.177"/><circle cx="1170" cy="0" r="91" fill="#7c5cff" opacity="0.042"/><circle cx="1156" cy="213" r="104" fill="#ff4d8d" opacity="0.09"/><circle cx="457" cy="-1" r="115" fill="#ff4d8d" opacity="0.158"/><circle cx="1541" cy="407" r="19" fill="#ff4d8d" opacity="0.118"/><circle cx="1399" cy="668" r="102" fill="#ff4d8d" opacity="0.173"/><circle cx="214" cy="636" r="24" fill="#ff4d8d" opacity="0.097"/><circle cx="514" cy="991" r="90" fill="#ffd166" opacity="0.116"/><circle cx="-91" cy="-84" r="31" fill="#ffd166" opacity="0.132"/><circle cx="1173" cy="-12" r="95" fill="#7c5cff" opacity="0.178"/><circle cx="66" cy="706" r="46" fill="#ff4d8d" opacity="0.116"/><circle cx="168" cy="495" r="52" fill="#ff4d8d" opacity="0.046"/><circle cx="1390" cy="70" r="16" fill="#ff4d8d" opacity="0.052"/><circle cx="515" cy="823" r="59" fill="#ff4d8d" opacity="0.154"/><circle cx="571" cy="417" r="22" fill="#7c5cff" opacity="0.104"/><circle cx="420" cy="842" r="115" fill="#7c5cff" opacity="0.121"/><circle cx="956" cy="855" r="67" fill="#ffd166" opacity="0.04"/><circle cx="1365" cy="391" r="69" fill="#ffd166" opacity="0.149"/><circle cx="1562" cy="733" r="13" fill="#ff4d8d" opacity="0.085"/><circle cx="1233" cy="365" r="37" fill="#7c5cff" opacity="0.129"/><circle cx="616" cy="482" r="13" fill="#ff4d8d" opacity="0.152"/><circle cx="302" cy="458" r="34" fill="#7c5cff" opacity="0.078"/><circle cx="1167" cy="427" r="100" fill="#ffd166" opacity="0.127"/><circle cx="1469" cy="629" r="12" fill="#7c5cff" opacity="0.052"/><circle cx="1204" cy="704" r="47" fill="#7c5cff" opacity="0.092"/><circle cx="1548" cy="300" r="16" fill="#7c5cff" opacity="0.052"/><circle cx="100" cy="-6" r="67" fill="#7c5cff" opacity="0.062"/><circle cx="1574" cy="864" r="107" fill="#ffd166" opacity="0.107"/><circle cx="232" cy="254" r="104" fill="#ffd166" opacity="0.075"/><circle cx="410" cy="294" r="104" fill="#ff4d8d" opacity="0.042"/><circle cx="1179" cy="620" r="82" fill="#7c5cff" opacity="0.112"/><circle cx="892" cy="479" r="97" fill="#7c5cff" opacity="0.109"/><circle cx="769" cy="199" r="57" fill="#ff4d8d" opacity="0.134"/><circle cx="912" cy="0" r="57" fill="#ffd166" opacity="0.172"/><circle cx="433" cy="550" r="86" fill="#ff4d8d" opacity="0.119"/><circle cx="975" cy="845" r="34" fill="#ffd166" opacity="0.126"/><circle cx="1605" cy="856" r="109" fill="#ff4d8d" opacity="0.174"/><circle cx="1355" cy="762" r="40" fill="#7c5cff" opacity="0.126"/><circle cx="1565" cy="814" r="103" fill="#ffd166" opacity="0.156"/><circle cx="1558" cy="663" r="20" fill="#ff4d8d" opacity="0.049"/><circle cx="967" cy="525" r="89" fill="#ff4d8d" opacity="0.067"/><circle cx="1694" cy="211" r="17" fill="#7c5cff" opacity="0.085"/><circle cx="-33" cy="991" r="13" fill="#ff4d8d" opacity="0.082"/><circle cx="1078" cy="-59" r="78" fill="#ff4d8d" opacity="0.123"/><circle cx="1177" cy="943" r="88" fill="#ffd166" opacity="0.127"/><circle cx="109" cy="508" r="27" fill="#ff4d8d" opacity="0.175"/><circle cx="-1" cy="388" r="99" fill="#ffd166" opacity="0.164"/><circle cx="73" cy="196" r="9" fill="#ff4d8d" opacity="0.056"/><circle cx="1445" cy="23" r="19" fill="#ffd166" opacity="0.078"/><circle cx="1374" cy="-15" r="13" fill="#7c5cff" opacity="0.055"/><circle cx="1573" cy="-97" r="66" fill="#ffd166" opacity="0.115"/><circle cx="771" cy="872" r="49" fill="#ff4d8d" opacity="0.049"/><circle cx="1474" cy="565" r="47" fill="#ffd166" opacity="0.098"/><circle cx="393" cy="-55" r="74" fill="#ffd166" opacity="0.053"/><circle cx="1132" cy="299" r="95" fill="#7c5cff" opacity="0.124"/><circle cx="1337" cy="690" r="51" fill="#ff4d8d" opacity="0.086"/><circle cx="1165" cy="790" r="100" fill="#7c5cff" opacity="0.151"/><circle cx="1656" cy="797" r="80" fill="#ffd166" opacity="0.157"/><circle cx="184" cy="489" r="108" fill="#ffd166" opacity="0.108"/><circle cx="708" cy="-80" r="84" fill="#ff4d8d" opacity="0.079"/><circle cx="1004" cy="678" r="109" fill="#ff4d8d" opacity="0.151"/><circle cx="1574" cy="8" r="34" fill="#7c5cff" opacity="0.109"/><circle cx="534" cy="348" r="58" fill="#ff4d8d" opacity="0.148"/><circle cx="203" cy="327" r="87" fill="#7c5cff" opacity="0.128"/>
<rect width="1600" height="900" filter="url(#grain)" opacity="0.7"/>
</svg>