<svg xmlns="http://www.w3.org/2000/svg" width="1600" height="900" viewBox="0 0 1600 900">
<defs>
  <linearGradient id="g" x1="0" y1="0" x2="0" y2="1">
    <stop offset="0" stop-color="#1b0f12"/>
    <stop offset="1" stop-color="#07070d"/>
  </linearGradient>
  <filter id="grain">
    <feTurbulence type="fractalNoise" baseFrequency="0.8" numOctaves="2" stitchTiles="stitch"/>
    <feColorMatrix type="matrix" values="1 0 0 0 0  0 1 0 0 0  0 0 1 0 0  0 0 0 .08 0"/>
  </filter>
</defs>
<rect width="1600" height="900" fill="url(#g)"/>
<circle cx="440" cy="903" r="83" fill="#ffd166" opacity="0.065"/><circle cx="-36" cy="910" r="102" fill="#ff4d8d" opacity="0.147"/><circle cx="664" cy="485" r="110" fill="#6b2e2e" opacity="0.069"/><circle cx="926" cy="453" r="31" fill="#ffd166" opacity="0.085"/><circle cx="308" cy="292" r="64" fill="#6b2e2e" opacity="0.166"/><circle cx="413" cy="941" r="50" fill="#ffd166" opacity="0.134"/><circle cx="197" cy="905" r="22" fill="#6b2e2e" opacity="0.156"/><circle cx="368" cy="30" r="74" fill="#6b2e2e" opacity="0.054"/><circle cx="1363" cy="520" r="93" fill="#ff4d8d" opacity="0.127"/><circle cx="1076" cy="701" r="89" fill="#6b2e2e" opacity="0.175"/><circle cx="179" cy="221" r="40" fill="#ffd166" opacity="0.051"/><circle cx="355" cy="360" r="76" fill="#6b2e2e" opacity="0.097"/><circle cx="390" cy="234" r="87" fill="#ff4d8d" opacity="0.115"/><circle cx="91" cy="334" r="59" fill="#ff4d8d" opacity="0.051"/><circle cx="538" cy="-53" r="62" fill="#6b2e2e" opacity="0.091"/><circle cx="479" cy="75" r="95" fill="#ffd166" opacity="0.081"/><circle cx="1544" cy="665" r="67" fill="#6b2e2e" opacity="0.159"/><circle cx="1552" cy="247" r="13" fill="#ffd166" opacity="0.114"/><circle cx="231" cy="-62" r="108" fill="#ff4d8d" opacity="0.15"/><circle cx="358" cy="436" r="102" fill="#ff4d8d" opacity="0.103"/><circle cx="801" cy="486" r="82" fill="#ff4d8d" opacity="0.117"/><circle cx="1694" cy="331" r="76" fill="#6b2e2e" opacity="0.173"/><circle cx="406" cy="155" r="47" fill="#6b2e2e" opacity="0.114"/><circle cx="1065" cy="846" r="21" fill="#ff4d8d" opacity="0.046"/><circle cx="822" cy="852" r="14" fill="#6b2e2e" opacity="0.176"/><circle cx="1242" cy="100" r="91" fill="#ff4d8d" opacity="0.06"/><circle cx="990" cy="675" r="70" fill="#ffd166" opacity="0.059"/><circle cx="-48" cy="65" r="32" fill="#ffd166" opacity="0.087"/><circle cx="668" cy="143" r="78" fill="#ff4d8d" opacity="0.099"/><circle cx="1302" cy="504" r="98" fill="#6b2e2e" opacity="0.112"/><circle cx="598" cy="996" r="41" fill="#6b2e2e" opacity="0.176"/><circle cx="345" cy="390" r="13" fill="#ff4d8d" opacity="0.128"/><circle cx="1042" cy="337" r="92" fill="#ffd166" opacity="0.06"/><circle cx="885" cy="642" r="50" fill="#ff4d8d" opacity="0.153"/><circle cx="825" cy="-89" r="75" fill="#ffd166" opacity="0.079"/><circle cx="-23" cy="104" r="94" fill="#ffd166" opacity="0.14"/><circle cx="604" cy="533" r="20" fill="#ff4d8d" opacity="0.119"/><circle cx="1273" cy="238" r="72" fill="#ff4d8d" opacity="0.093"/><circle cx="384" cy="537" r="79" fill="#ff4d8d" opacity="0.062"/><circle cx="505" cy="948" r="21" fill="#ff4d8d" opacity="0.118"/><circle cx="382" cy="607" r="83" fill="#6b2e2e" opacity="0.114"/><circle cx="1375" cy="704" r="92" fill="#6b2e2e" opacity="0.059"/><circle cx="1460" cy="234" r="104" fill="#ffd166" opacity="0.126"/><circle cx="399" cy="89" r="71" fill="#6b2e2e" opacity="0.063"/><circle cx="617" cy="524" r="99" fill="#6b2e2e" opacity="0.144"/><circle cx="240" cy="400" r="27" fill="#6b2e2e" opacity="0.084"/><circle cx="-55" cy="212" r="33" fill="#ffd166" opacity="0.159"/><circle cx="338" cy="632" r="23" fill="#ff4d8d" opacity="0.07"/><circle cx="30" cy="735" r="15" fill="#6b2e2e" opacity="0.078"/><circle cx="1312" cy="-73" r="109" fill="#6b2e2e" opacity="0.095"/><circle cx="1684" cy="604" r="10" fill="#6b2e2e" opacity="0.06"/><circle cx="811" cy="693" r="11" fill="#ff4d8d" opacity="0.134"/><circle cx="1297" cy="44" r="20" fill="#ffd166" opacity="0.062"/><circle cx="790" cy="813" r="83" fill="#6b2e2e" opacity="0.086"/><circle cx="180" cy="42" r="55" fill="#ffd166" opacity="0.168"/><circle cx="376" cy="638" r="27" fill="#ff4d8d" opacity="0.09"/><circle cx="1133" cy="-59" r="31" fill="#ffd166" opacity="0.047"/><circle cx="1647" cy="527" r="108" fill="#6b2e2e" opacity="0.069"/><circle cx="511" cy="74" r="100" fill="#ffd166" opacity="0.115"/><circle cx="264" cy="567" r="68" fill="#ffd166" opacity="0.153"/><circle cx="1696" cy="720" r="56" fill="#ffd166" opacity="0.166"/><circle cx="66" cy="592" r="115" fill="#ff4d8d" opacity="0.049"/><circle cx="155" cy="874" r="106" fill="#ffd166" opacity="0.093"/><circle cx="929" cy="88" r="66" fill="#ff4d8d" opacity="0.12"/><circle cx="357" cy="956" r="74" fill="#ffd166" opacity="0.147"/><circle cx="-48" cy="4" r="105" fill="#ffd166" opacity="0.142"/><circle cx="1478" cy="-79" r="48" fill="#ff4d8d" opacity="0.058"/><circle cx="665" cy="259" r="45" fill="#6b2e2e" opacity="0.146"/><circle cx="1083" cy="549" r="59" fill="#ffd166" opacity="0.156"/><circle cx="1291" cy="709" r="8" fill="#ff4d8d" opacity="0.098"/><circle cx="1654" cy="-78" r="93" fill="#ffd166" opacity="0.125"/><circle cx="776" cy="38" r="51" fill="#ff4d8d" opacity="0.099"/><circle cx="1432" cy="512" r="90" fill="#ff4d8d" opacity="0.171"/><circle cx="643" cy="522" r="76" fill="#6b2e2e" opacity="0.076"/><circle cx="259" cy="620" r="12" fill="#ff4d8d" opacity="0.079"/><circle cx="1002" cy="551" r="107" fill="#ffd166" opacity="0.142"/><circle cx="1355" cy="545" r="117" fill="#ff4d8d" opacity="0.143"/><circle cx="1444" cy="585" r="33" fill="#ff4d8d" opacity="0.047"/><circle cx="679" cy="636" r="77" fill="#ffd166" opacity="0.11"/><circle cx="455" cy="-37" r="54" fill="#6b2e2e" opacity="0.043"/><circle cx="1327" cy="217" r="22" fill="#6b2e2e" opacity="0.051"/><circle cx="1378" cy="783" r="104" fill="#6b2e2e" opacity="0.061"/><circle cx="338" cy="584" r="87" fill="#ffd166" opacity="0.134"/><circle cx="1104" cy="681" r="107" fill="#ff4d8d" opacity="0.051"/><circle cx="1542" cy="593" r="95" fill="#6b2e2e" opacity="0.141"/><circle cx="586" cy="992" r="22" fill="#ffd166" opacity="0.117"/><circle cx="417" cy="597" r="49" fill="#ff4d8d" opacity="0.143"/><circle cx="942" cy="720" r="70" fill="#ff4d8d" opacity="0.158"/><circle cx="1475" cy="76" r="60" fill="#6b2e2e" opacity="0.094"/><circle cx="-74" cy="397" r="70" fill="#ffd166" opacity="0.055"/><circle cx="960" cy="350" r="93" fill="#ff4d8d" opacity="0.061"/><circle cx="1431" cy="298" r="10" fill="#ff4d8d" opacity="0.113"/><circle cx="1491" cy="645" r="91" fill="#ffd166" opacity="0.18"/><circle cx="538" cy="-87" r="73" fill="#ff4d8d" opacity="0.106"/><circle cx="717" cy="328" r="95" fill="#ffd166" opacity="0.177"/><circle cx="381" cy="391" r="26" fill="#6b2e2e" opacity="0.07"/><circle cx="1641" cy="442" r="105" fill="#ff4d8d" opacity="0.055"/><circle cx="961" cy="322" r="47" fill="#6b2e2e" opacity="0.084"/><circle cx="64" cy="923" r="82" fill="#6b2e2e" opacity="0.154"/><circle cx="644" cy="580" r="49" fill="#ffd166" opacity="0.168"/><circle cx="99" cy="186" r="57" fill="#6b2e2e" opacity="0.118"/><circle cx="1592" cy="540" r="59" fill="#ffd166" opacity="0.174"/><circle cx="548" cy="583" r="9" fill="#6b2e2e" opacity="0.086"/><circle cx="473" cy="949" r="100" fill="#ff4d8d" opacity="0.147"/><circle cx="1624" cy="178" r="71" fill="#ffd166" opacity="0.101"/><circle cx="140" cy="507" r="12" fill="#ffd166" opacity="0.088"/><circle cx="69" cy="697" r="31" fill="#ff4d8d" opacity="0.049"/><circle cx="1413" cy="189" r="90" fill="#ffd166" opacity="0.06"/><circle cx="636" cy="662" r="48" fill="#ffd166" opacity="0.176"/><circle cx="105" cy="-15" r="48" fill="#6b2e2e" opacity="0.058"/><circle cx="1296" cy="708" r="46" fill="#ff4d8d" opacity="0.06"/><circle cx="1569" cy="211" r="112" fill="#6b2e2e" opacity="0.064"/><circle cx="1190" cy="723" r="112" fill="#ff4d8d" opacity="0.074"/><circle cx="95" cy="859" r="25" fill="#ff4d8d" opacity="0.159"/><circle cx="1301" cy="611" r="47" fill="#ffd166" opacity="0.042"/><circle cx="615" cy="-30" r="8" fill="#ffd166" opacity="0.168"/><circle cx="599" cy="266" r="108" fill="#ff4d8d" opacity="0.102"/><circle cx="1082" cy="601" r="66" fill="#ff4d8d" opacity="0.074"/><circle cx="710" cy="69" r="110" fill="#ff4d8d" opacity="0.129"/><circle cx="401" cy="276" r="56" fill="#ff4d8d" opacity="0.075"/><circle cx="1097" cy="678" r="90" fill="#ff4d8d" opacity="0.168"/><circle cx="1099" cy="303" r="57" fill="#ff4d8d" opacity="0.085"/><circle cx="1556" cy="415" r="72" fill="#6b2e2e" opacity="0.054"/><circle cx="494" cy="-1" r="119" fill="#ffd166" opacity="0.077"/><circle cx="-12" cy="993" r="117" fill="#ffd166" opacity="0.146"/><circle cx="1177" cy="739" r="55" fill="#ff4d8d" opacity="0.04"/><circle cx="545" cy="406" r="54" fill="#6b2e2e" opacity="0.144"/><circle cx="587" cy="531" r="39" fill="#ffd166" opacity="0.057"/><circle cx="1037" cy="538" r="78" fill="#6b2e2e" opacity="0.108"/><circle cx="1150" cy="336" r="50" fill="#6b2e2e" opacity="0.068"/><circle cx="389" cy="915" r="48" fill="#ffd166" opacity="0.052"/><circle cx="1249" cy="749" r="82" fill="#ff4d8d" opacity="0.101"/><circle cx="772" cy="735" r="68" fill="#ffd166" opacity="0.138"/><circle cx="1690" cy="514" r="69" fill="#6b2e2e" opacity="0.11"/><circle cx="1372" cy="186" r="25" fill="#ffd166" opacity="0.073"/><circle cx="1553" cy="-91" r="38" fill="#ff4d8d" opacity="0.154"/><circle cx="289" cy="261" r="17" fill="#ffd166" opacity="0.105"/><circle cx="349" cy="127" r="92" fill="#ffd166" opacity="0.078"/><circle cx="789" cy="621" r="98" fill="#6b2e2e" opacity="0.114"/><circle cx="1134" cy="639" r="86" fill="#6b2e2e" opacity="0.131"/><circle cx="1086" cy="456" r="92" fill="#6b2e2e" opacity="0.114"/><circle cx="816" cy="975" r="64" fill="#6b2e2e" opacity="0.15"/><circle cx="-27" cy="-43" r="90" fill="#ff4d8d" opacity="0.045"/><circle cx="781" cy="826" r="72" fill="#ff4d8d" opacity="0.094"/><circle cx="1175" cy="671" r="64" fill="#ff4d8d" opacity="0.068"/><circle cx="637" cy="634" r="44" fill="#ffd166" opacity="0.104"/><circle cx="331" cy="258" r="53" fill="#6b2e2e" opacity="0.167"/><circle cx="681" cy="565" r="115" fill="#6b2e2e" opacity="0.087"/><circle cx="1526" cy="425" r="27" fill="#ff4d8d" opacity="0.104"/><circle cx="741" cy="428" r="25" fill="#6b2e2e" opacity="0.084"/><circle cx="1532" cy="95" r="66" fill="#6b2e2e" opacity="0.124"/><circle cx="1239" cy="151" r="8" fill="#ffd166" opacity="0.059"/><circle cx="1399" cy="476" r="110" fill="#ffd166" opacity="0.101"/><circle cx="1490" cy="858" r="15" fill="#ffd166" opacity="0.042"/><circle cx="1017" cy="14" r="33" fill="#ffd166" opacity="0.045"/><circle cx="665" cy="923" r="86" fill="#6b2e2e" opacity="0.131"/><circle cx="1645" cy="458" r="37" fill="#ffd166" opacity="0.152"/><circle cx="473" cy="819" r="100" fill="#6b2e2e" opacity="0.126"/><circle cx="1573" cy="-27" r="104" fill="#ff4d8d" opacity="0.115"/><circle cx="74" cy="158" r="68" fill="#ff4d8d" opacity="0.046"/><circle cx="790" cy="88" r="79" fill="#6b2e2e" opacity="0.062"/><circle cx="1503" cy="589" r="58" fill="#6b2e2e" opacity="0.136"/><circle cx="1565" cy="74" r="88" fill="#6b2e2e" opacity="0.162"/><circle cx="1082" cy="457" r="18" fill="#ffd166" opacity="0.177"/><circle cx="1577" cy="104" r="14" fill="#6b2e2e" opacity="0.06"/><circle cx="1368" cy="619" r="61" fill="#ff4d8d" opacity="0.177"/><circle cx="433" cy="546" r="102" fill="#6b2e2e" opacity="0.118"/><circle cx="99" cy="615" r="82" fill="#ff4d8d" opacity="0.138"/><circle cx="175" cy="931" r="40" fill="#ffd166" opacity="0.069"/><circle cx="416" cy="65" r="113" fill="#ff4d8d" opacity="0.067"/><circle cx="-54" cy="622" r="13" fill="#6b2e2e" opacity="0.159"/><circle cx="407" cy="853" r="91" fill="#ffd166" opacity="0.07"/><circle cx="955" cy="361" r="19" fill="#ff4d8d" opacity="0.074"/><circle cx="953" cy="366" r="72" fill="#ffd166" opacity="0.086"/><circle cx="784" cy="550" r="42" fill="#ffd166" opacity="0.048"/><circle cx="411" cy="916" r="58" fill="#ff4d8d" opacity="0.173"/><circle cx="1400" cy="268" r="58" fill="#6b2e2e" opacity="0.04"/><circle cx="1293" cy="872" r="42" fill="#6b2e2e" opacity="0.134"/><circle cx="969" cy="476" r="40" fill="#ffd166" opacity="0.133"/><circle cx="1164" cy="18" r="32" fill="#6b2e2e" opacity="0.165"/><circle cx="1529" cy="627" r="30" fill="#6b2e2e" opacity="0.041"/><circle cx="552" cy="629" r="95" fill="#ff4d8d" opacity="0.088"/><circle cx="1120" cy="544" r="77" fill="#ff4d8d" opacity="0.061"/><circle cx="935" cy="832" r="78" fill="#6b2e2e" opacity="0.068"/><circle cx="1637" cy="493" r="50" fill="#6b2e2e" opacity="0.178"/><circle cx="1561" cy="849" r="100" fill="#ff4d8d" opacity="0.168"/><circle cx="1575" cy="279" r="75" fill="#6b2e2e" opacity="0.056"/><circle cx="144" cy="488" r="101" fill="#ffd166" opacity="0.158"/><circle cx="77" cy="451" r="16" fill="#ffd166" opacity="0.081"/><circle cx="1164" cy="996" r="119" fill="#ff4d8d" opacity="0.047"/>
<rect width="1600" height="900" filter="url(#grain)" opacity="0.7"/>
</svg>