<svg xmlns="http://www.w3.org/2000/svg" width="1600" height="900" viewBox="0 0 1600 900">
<defs>
  <linearGradient id="g" x1="0" y1="0" x2="0" y2="1">
    <stop offset="0" stop-color="#162031"/>
    <stop offset="1" stop-color="#07070d"/>
  </linearGradient>
  <filter id="grain">
    <feTurbulence type="fractalNoise" baseFrequency="0.8" numOctaves="2" stitchTiles="stitch"/>
    <feColorMatrix type="matrix" values="1 0 0 0 0  0 1 0 0 0  0 0 1 0 0  0 0 0 .08 0"/>
  </filter>
</defs>
<rect width="1600" height="900" fill="url(#g)"/>
<circle cx="408" cy="-89" r="23" fill="#ff4d8d" opacity="0.162"/><circle cx="810" cy="416" r="95" fill="#b7b7ff" opacity="0.173"/><circle cx="602" cy="971" r="62" fill="#7c5cff" opacity="0.168"/><circle cx="1595" cy="868" r="17" fill="#b7b7ff" opacity="0.13"/><circle cx="1527" cy="575" r="45" fill="#b7b7ff" opacity="0.159"/><circle cx="1206" cy="511" r="63" fill="#ff4d8d" opacity="0.122"/><circle cx="518" cy="1" r="111" fill="#b7b7ff" opacity="0.172"/><circle cx="1532" cy="821" r="31" fill="#7c5cff" opacity="0.107"/><circle cx="1058" cy="695" r="55" fill="#ff4d8d" opacity="0.081"/><circle cx="1486" cy="563" r="22" fill="#b7b7ff" opacity="0.161"/><circle cx="1561" cy="449" r="23" fill="#7c5cff" opacity="0.149"/><circle cx="1485" cy="785" r="12" fill="#ff4d8d" opacity="0.107"/><circle cx="635" cy="744" r="49" fill="#7c5cff" opacity="0.159"/><circle cx="1485" cy="155" r="101" fill="#b7b7ff" opacity="0.114"/><circle cx="42" cy="503" r="72" fill="#7c5cff" opacity="0.048"/><circle cx="705" cy="-9" r="117" fill="#ff4d8d" opacity="0.163"/><circle cx="374" cy="-69" r="19" fill="#7c5cff" opacity="0.044"/><circle cx="1444" cy="755" r="60" fill="#7c5cff" opacity="0.153"/><circle cx="1468" cy="448" r="29" fill="#b7b7ff" opacity="0.118"/><circle cx="1621" cy="467" r="26" fill="#b7b7ff" opacity="0.13"/><circle cx="970" cy="276" r="10" fill="#b7b7ff" opacity="0.132"/><circle cx="842" cy="177" r="60" fill="#b7b7ff" opacity="0.047"/><circle cx="-7" cy="274" r="102" fill="#b7b7ff" opacity="0.12"/><circle cx="678" cy="580" r="19" fill="#7c5cff" opacity="0.08"/><circle cx="-80" cy="-28" r="34" fill="#ff4d8d" opacity="0.165"/><circle cx="130" cy="335" r="20" fill="#b7b7ff" opacity="0.141"/><circle cx="-34" cy="246" r="57" fill="#b7b7ff" opacity="0.153"/><circle cx="1499" cy="236" r="48" fill="#b7b7ff" opacity="0.101"/><circle cx="982" cy="451" r="110" fill="#ff4d8d" opacity="0.062"/><circle cx="1456" cy="134" r="103" fill="#b7b7ff" opacity="0.162"/><circle cx="1463" cy="781" r="11" fill="#b7b7ff" opacity="0.144"/><circle cx="272" cy="646" r="65" fill="#b7b7ff" opacity="0.175"/><circle cx="59" cy="617" r="88" fill="#b7b7ff" opacity="0.097"/><circle cx="1115" cy="91" r="94" fill="#b7b7ff" opacity="0.166"/><circle cx="1260" cy="406" r="108" fill="#ff4d8d" opacity="0.058"/><circle cx="335" cy="213" r="64" fill="#b7b7ff" opacity="0.113"/><circle cx="601" cy="54" r="89" fill="#b7b7ff" opacity="0.04"/><circle cx="1334" cy="232" r="49" fill="#b7b7ff" opacity="0.127"/><circle cx="823" cy="952" r="11" fill="#b7b7ff" opacity="0.148"/><circle cx="11" cy="472" r="78" fill="#ff4d8d" opacity="0.16"/><circle cx="1084" cy="698" r="18" fill="#7c5cff" opacity="0.072"/><circle cx="1301" cy="-66" r="39" fill="#b7b7ff" opacity="0.086"/><circle cx="628" cy="763" r="55" fill="#ff4d8d" opacity="0.138"/><circle cx="340" cy="572" r="117" fill="#ff4d8d" opacity="0.14"/><circle cx="933" cy="925" r="32" fill="#ff4d8d" opacity="0.096"/><circle cx="993" cy="60" r="110" fill="#7c5cff" opacity="0.18"/><circle cx="796" cy="741" r="47" fill="#ff4d8d" opacity="0.157"/><circle cx="582" cy="325" r="114" fill="#ff4d8d" opacity="0.117"/><circle cx="1471" cy="950" r="27" fill="#ff4d8d" opacity="0.1"/><circle cx="1325" cy="162" r="100" fill="#7c5cff" opacity="0.088"/><circle cx="161" cy="23" r="30" fill="#ff4d8d" opacity="0.054"/><circle cx="222" cy="741" r="16" fill="#ff4d8d" opacity="0.15"/><circle cx="855" cy="859" r="63" fill="#b7b7ff" opacity="0.094"/><circle cx="277" cy="384" r="31" fill="#b7b7ff" opacity="0.159"/><circle cx="1104" cy="702" r="47" fill="#b7b7ff" opacity="0.051"/><circle cx="-54" cy="524" r="11" fill="#b7b7ff" opacity="0.166"/><circle cx="286" cy="860" r="63" fill="#7c5cff" opacity="0.072"/><circle cx="1041" cy="33" r="14" fill="#7c5cff" opacity="0.128"/><circle cx="1372" cy="151" r="47" fill="#ff4d8d" opacity="0.167"/><circle cx="1445" cy="862" r="65" fill="#b7b7ff" opacity="0.079"/><circle cx="84" cy="973" r="99" fill="#ff4d8d" opacity="0.137"/><circle cx="824" cy="923" r="100" fill="#ff4d8d" opacity="0.099"/><circle cx="-44" cy="191" r="47" fill="#7c5cff" opacity="0.09"/><circle cx="1450" cy="835" r="11" fill="#ff4d8d" opacity="0.07"/><circle cx="659" cy="-66" r="62" fill="#b7b7ff" opacity="0.082"/><circle cx="1400" cy="910" r="27" fill="#ff4d8d" opacity="0.137"/><circle cx="158" cy="20" r="63" fill="#ff4d8d" opacity="0.075"/><circle cx="736" cy="0" r="79" fill="#ff4d8d" opacity="0.089"/><circle cx="103" cy="365" r="15" fill="#ff4d8d" opacity="0.148"/><circle cx="989" cy="359" r="106" fill="#ff4d8d" opacity="0.106"/><circle cx="338" cy="-79" r="35" fill="#7c5cff" opacity="0.098"/><circle cx="888" cy="839" r="111" fill="#7c5cff" opacity="0.04"/><circle cx="347" cy="352" r="32" fill="#b7b7ff" opacity="0.162"/><circle cx="1266" cy="822" r="39" fill="#b7b7ff" opacity="0.085"/><circle cx="615" cy="787" r="111" fill="#7c5cff" opacity="0.066"/><circle cx="1348" cy="525" r="104" fill="#7c5cff" opacity="0.16"/><circle cx="1493" cy="625" r="56" fill="#b7b7ff" opacity="0.163"/><circle cx="949" cy="791" r="115" fill="#7c5cff" opacity="0.165"/><circle cx="997" cy="971" r="111" fill="#7c5cff" opacity="0.114"/><circle cx="985" cy="169" r="110" fill="#7c5cff" opacity="0.065"/><circle cx="693" cy="974" r="41" fill="#ff4d8d" opacity="0.106"/><circle cx="1557" cy="710" r="105" fill="#7c5cff" opacity="0.167"/><circle cx="361" cy="128" r="41" fill="#b7b7ff" opacity="0.168"/><circle cx="1363" cy="742" r="56" fill="#b7b7ff" opacity="0.07"/><circle cx="70" cy="494" r="78" fill="#b7b7ff" opacity="0.117"/><circle cx="286" cy="234" r="37" fill="#ff4d8d" opacity="0.1"/><circle cx="421" cy="932" r="10" fill="#7c5cff" opacity="0.175"/><circle cx="53" cy="566" r="118" fill="#ff4d8d" opacity="0.18"/><circle cx="754" cy="555" r="94" fill="#b7b7ff" opacity="0.088"/><circle cx="323" cy="42" r="80" fill="#7c5cff" opacity="0.123"/><circle cx="1093" cy="899" r="113" fill="#b7b7ff" opacity="0.124"/><circle cx="737" cy="-4" r="120" fill="#ff4d8d" opacity="0.169"/><circle cx="999" cy="227" r="116" fill="#ff4d8d" opacity="0.062"/><circle cx="664" cy="106" r="31" fill="#7c5cff" opacity="0.066"/><circle cx="60" cy="490" r="59" fill="#7c5cff" opacity="0.061"/><circle cx="183" cy="-10" r="113" fill="#ff4d8d" opacity="0.128"/><circle cx="-55" cy="627" r="70" fill="#b7b7ff" opacity="0.076"/><circle cx="717" cy="-43" r="14" fill="#7c5cff" opacity="0.164"/><circle cx="818" cy="471" r="115" fill="#7c5cff" opacity="0.154"/><circle cx="1099" cy="24" r="104" fill="#7c5cff" opacity="0.164"/><circle cx="-21" cy="420" r="35" fill="#b7b7ff" opacity="0.101"/><circle cx="287" cy="623" r="14" fill="#b7b7ff" opacity="0.133"/><circle cx="358" cy="180" r="61" fill="#7c5cff" opacity="0.138"/><circle cx="597" cy="648" r="40" fill="#b7b7ff" opacity="0.106"/><circle cx="599" cy="888" r="47" fill="#ff4d8d" opacity="0.1"/><circle cx="470" cy="720" r="22" fill="#ff4d8d" opacity="0.175"/><circle cx="664" cy="406" r="10" fill="#ff4d8d" opacity="0.092"/><circle cx="603" cy="334" r="108" fill="#b7b7ff" opacity="0.147"/><circle cx="-29" cy="274" r="92" fill="#7c5cff" opacity="0.147"/><circle cx="884" cy="731" r="113" fill="#b7b7ff" opacity="0.144"/><circle cx="578" cy="276" r="12" fill="#ff4d8d" opacity="0.14"/><circle cx="492" cy="-56" r="70" fill="#b7b7ff" opacity="0.109"/><circle cx="216" cy="-6" r="32" fill="#b7b7ff" opacity="0.168"/><circle cx="1314" cy="-62" r="20" fill="#ff4d8d" opacity="0.167"/><circle cx="455" cy="352" r="44" fill="#7c5cff" opacity="0.146"/><circle cx="21" cy="631" r="28" fill="#7c5cff" opacity="0.106"/><circle cx="221" cy="935" r="65" fill="#b7b7ff" opacity="0.139"/><circle cx="1642" cy="75" r="57" fill="#ff4d8d" opacity="0.065"/><circle cx="-66" cy="139" r="103" fill="#b7b7ff" opacity="0.101"/><circle cx="1638" cy="794" r="75" fill="#7c5cff" opacity="0.058"/><circle cx="401" cy="-58" r="21" fill="#b7b7ff" opacity="0.171"/><circle cx="1350" cy="-8" r="99" fill="#ff4d8d" opacity="0.072"/><circle cx="-90" cy="314" r="79" fill="#7c5cff" opacity="0.152"/><circle cx="654" cy="666" r="84" fill="#ff4d8d" opacity="0.114"/><circle cx="269" cy="306" r="81" fill="#7c5cff" opacity="0.062"/><circle cx="1692" cy="247" r="40" fill="#ff4d8d" opacity="0.16"/><circle cx="1425" cy="986" r="52" fill="#ff4d8d" opacity="0.144"/><circle cx="607" cy="405" r="99" fill="#b7b7ff" opacity="0.079"/><circle cx="1005" cy="426" r="23" fill="#7c5cff" opacity="0.07"/><circle cx="177" cy="343" r="119" fill="#7c5cff" opacity="0.102"/><circle cx="860" cy="-98" r="36" fill="#7c5cff" opacity="0.092"/><circle cx="-25" cy="616" r="13" fill="#b7b7ff" opacity="0.078"/><circle cx="1648" cy="143" r="84" fill="#b7b7ff" opacity="0.106"/><circle cx="732" cy="-49" r="31" fill="#ff4d8d" opacity="0.137"/><circle cx="1099" cy="509" r="114" fill="#7c5cff" opacity="0.133"/><circle cx="1576" cy="213" r="66" fill="#b7b7ff" opacity="0.125"/><circle cx="1266" cy="451" r="77" fill="#7c5cff" opacity="0.125"/><circle cx="1486" cy="767" r="76" fill="#b7b7ff" opacity="0.103"/><circle cx="1689" cy="238" r="18" fill="#7c5cff" opacity="0.127"/><circle cx="1447" cy="322" r="70" fill="#ff4d8d" opacity="0.064"/><circle cx="504" cy="135" r="77" fill="#ff4d8d" opacity="0.125"/><circle cx="1098" cy="-69" r="22" fill="#7c5cff" opacity="0.134"/><circle cx="1564" cy="820" r="100" fill="#b7b7ff" opacity="0.145"/><circle cx="1056" cy="337" r="47" fill="#7c5cff" opacity="0.124"/><circle cx="852" cy="114" r="43" fill="#7c5cff" opacity="0.042"/><circle cx="1658" cy="949" r="108" fill="#b7b7ff" opacity="0.175"/><circle cx="719" cy="31" r="94" fill="#b7b7ff" opacity="0.176"/><circle cx="950" cy="11" r="73" fill="#ff4d8d" opacity="0.118"/><circle cx="732" cy="347" r="72" fill="#ff4d8d" opacity="0.142"/><circle cx="-8" cy="-7" r="79" fill="#7c5cff" opacity="0.166"/><circle cx="1169" cy="970" r="38" fill="#ff4d8d" opacity="0.152"/><circle cx="654" cy="43" r="58" fill="#ff4d8d" opacity="0.124"/><circle cx="306" cy="920" r="21" fill="#7c5cff" opacity="0.074"/><circle cx="83" cy="46" r="79" fill="#b7b7ff" opacity="0.158"/><circle cx="219" cy="130" r="42" fill="#ff4d8d" opacity="0.086"/><circle cx="263" cy="405" r="98" fill="#7c5cff" opacity="0.098"/><circle cx="754" cy="900" r="109" fill="#ff4d8d" opacity="0.125"/><circle cx="1200" cy="591" r="48" fill="#b7b7ff" opacity="0.107"/><circle cx="151" cy="2" r="40" fill="#7c5cff" opacity="0.084"/><circle cx="205" cy="829" r="79" fill="#7c5cff" opacity="0.051"/><circle cx="1267" cy="836" r="34" fill="#b7b7ff" opacity="0.072"/><circle cx="855" cy="-54" r="117" fill="#b7b7ff" opacity="0.068"/><circle cx="28" cy="970" r="48" fill="#7c5cff" opacity="0.094"/><circle cx="584" cy="885" r="26" fill="#ff4d8d" opacity="0.158"/><circle cx="401" cy="-3" r="31" fill="#7c5cff" opacity="0.138"/><circle cx="527" cy="970" r="20" fill="#b7b7ff" opacity="0.14"/><circle cx="152" cy="795" r="98" fill="#7c5cff" opacity="0.118"/><circle cx="-33" cy="-53" r="24" fill="#b7b7ff" opacity="0.051"/><circle cx="844" cy="-17" r="97" fill="#ff4d8d" opacity="0.152"/><circle cx="1149" cy="597" r="50" fill="#ff4d8d" opacity="0.119"/><circle cx="988" cy="568" r="17" fill="#b7b7ff" opacity="0.114"/><circle cx="810" cy="326" r="29" fill="#7c5cff" opacity="0.116"/><circle cx="1207" cy="-3" r="41" fill="#ff4d8d" opacity="0.066"/><circle cx="1390" cy="362" r="110" fill="#b7b7ff" opacity="0.168"/><circle cx="718" cy="119" r="15" fill="#ff4d8d" opacity="0.134"/><circle cx="708" cy="17" r="61" fill="#ff4d8d" opacity="0.049"/><circle cx="1492" cy="644" r="35" fill="#ff4d8d" opacity="0.07"/><circle cx="1271" cy="600" r="61" fill="#7c5cff" opacity="0.127"/><circle cx="-44" cy="522" r="14" fill="#b7b7ff" opacity="0.126"/><circle cx="-21" cy="-10" r="44" fill="#ff4d8d" opacity="0.081"/>
<rect width="1600" height="900" filter="url(#grain)" opacity="0.7"/>
</svg>